<svg width="174" height="174" viewBox="0 0 174 174" fill="none" xmlns="http://www.w3.org/2000/svg">
<circle cx="87" cy="87" r="75" transform="rotate(10 87 87)" fill="#009EE2"/>
<path d="M58.191 80.7699C57.9677 82.0368 57.4979 83.0064 56.7817 83.6788C56.0655 84.3511 55.2125 84.5999 54.2226 84.4254C53.2121 84.2472 52.4736 83.7865 52.007 83.0431L51.3002 87.0516L49.8769 86.8006L51.9091 75.2753L53.2094 75.5046L53.1158 76.44C53.822 75.8241 54.6906 75.6071 55.7216 75.7889C56.7218 75.9652 57.4452 76.4815 57.8919 77.3377C58.3437 78.1948 58.4511 79.2953 58.2141 80.6391L58.191 80.7699ZM56.7962 80.3574C56.9617 79.4187 56.8923 78.6423 56.5881 78.028C56.2839 77.4138 55.783 77.0452 55.0855 76.9222C54.2237 76.7702 53.5101 77.0384 52.9445 77.7267L52.2431 81.7044C52.535 82.5386 53.1195 83.033 53.9965 83.1877C54.6787 83.3079 55.2673 83.1341 55.7624 82.6661C56.2635 82.1938 56.6081 81.4242 56.7962 80.3574ZM64.5557 78.8221C64.3466 78.7482 64.1164 78.6891 63.865 78.6448C62.9315 78.4802 62.228 78.766 61.7544 79.5022L60.7125 85.4111L59.2891 85.1601L60.757 76.8354L62.1419 77.0796L61.9954 78.0454C62.5933 77.384 63.3205 77.1288 64.1771 77.2798C64.4541 77.3286 64.658 77.4016 64.789 77.4988L64.5557 78.8221ZM64.8453 81.7687C64.9891 80.9532 65.2774 80.2477 65.7103 79.6524C66.1483 79.058 66.6831 78.634 67.3149 78.3805C67.9518 78.1278 68.6369 78.0662 69.3704 78.1955C70.504 78.3954 71.3504 78.9492 71.9095 79.857C72.4739 80.7657 72.6412 81.8714 72.4115 83.1742L72.3938 83.2742C72.2509 84.0847 71.9661 84.7854 71.5392 85.3765C71.1184 85.9634 70.5866 86.3853 69.9436 86.6421C69.3059 86.8999 68.6125 86.9627 67.8637 86.8307C66.7353 86.6317 65.8889 86.0779 65.3245 85.1692C64.7654 84.2615 64.5997 83.1613 64.8276 81.8687L64.8453 81.7687ZM66.2465 82.1903C66.0837 83.1136 66.1658 83.8923 66.493 84.5264C66.8253 85.1615 67.3504 85.5423 68.0685 85.6689C68.7917 85.7964 69.416 85.6156 69.9412 85.1265C70.4673 84.6322 70.8203 83.8747 71.0003 82.854C71.1613 81.941 71.0735 81.164 70.737 80.5229C70.4066 79.8776 69.8823 79.4916 69.1642 79.365C68.4615 79.2411 67.8454 79.4207 67.316 79.9038C66.7866 80.3869 66.4301 81.1491 66.2465 82.1903ZM81.2263 84.8317C81.002 86.1037 80.5292 87.0754 79.8079 87.7468C79.0875 88.4131 78.2349 88.6594 77.2501 88.4858C76.1986 88.3004 75.4512 87.7851 75.0079 86.9401L74.7691 87.8896L73.4611 87.659L75.5449 75.8413L76.9683 76.0923L76.1909 80.5008C76.8911 79.8892 77.7464 79.6724 78.7569 79.8506C79.7673 80.0288 80.4924 80.5506 80.9321 81.4162C81.377 82.2826 81.4823 83.3801 81.248 84.7086L81.2263 84.8317ZM79.8314 84.4191C80.0024 83.4497 79.9472 82.6678 79.6659 82.0735C79.3847 81.4792 78.8927 81.12 78.19 80.9961C77.2513 80.8306 76.5 81.1477 75.9359 81.9473L75.301 85.548C75.5832 86.4968 76.1859 87.0526 77.1092 87.2154C77.7914 87.3357 78.3688 87.1652 78.8416 86.7038C79.3143 86.2424 79.6442 85.4809 79.8314 84.4191ZM85.7364 89.9821C84.608 89.7832 83.755 89.252 83.1774 88.3886C82.6007 87.52 82.4218 86.4651 82.6406 85.2238L82.6868 84.9622C82.8324 84.1364 83.1186 83.428 83.5454 82.8369C83.9783 82.2415 84.509 81.8115 85.1374 81.5468C85.7718 81.2779 86.4199 81.2018 87.0816 81.3185C88.1638 81.5093 88.9422 82.0141 89.4166 82.8329C89.891 83.6517 90.0111 84.7253 89.7768 86.0537L89.6724 86.6462L84.0328 85.6518C83.9086 86.4761 84.03 87.1823 84.3969 87.7706C84.7699 88.3547 85.3104 88.7091 86.0182 88.8339C86.5208 88.9226 86.9647 88.895 87.3496 88.7514C87.7346 88.6077 88.0877 88.3897 88.409 88.0973L89.159 88.9276C88.2724 89.8766 87.1315 90.2281 85.7364 89.9821ZM86.8754 82.4879C86.3009 82.3866 85.7817 82.5119 85.3177 82.8638C84.8546 83.2105 84.5104 83.7527 84.2852 84.4904L88.4552 85.2257L88.4742 85.118C88.5607 84.3876 88.4644 83.7941 88.1852 83.3377C87.907 82.8761 87.4704 82.5928 86.8754 82.4879ZM94.0919 91.4554C92.9634 91.2565 92.1104 90.7253 91.5328 89.8618C90.9562 88.9933 90.7772 87.9384 90.9961 86.6971L91.0422 86.4355C91.1879 85.6097 91.4741 84.9013 91.9009 84.3102C92.3338 83.7148 92.8644 83.2848 93.4929 83.0201C94.1273 82.7512 94.7754 82.6751 95.4371 82.7918C96.5193 82.9826 97.2976 83.4874 97.7721 84.3062C98.2465 85.125 98.3665 86.1986 98.1323 87.527L98.0278 88.1195L92.3883 87.1251C92.2641 87.9494 92.3855 88.6556 92.7524 89.2439C93.1254 89.828 93.6658 90.1824 94.3737 90.3072C94.8763 90.3959 95.3201 90.3683 95.7051 90.2247C96.0901 90.081 96.4432 89.863 96.7645 89.5706L97.5145 90.4009C96.6279 91.3499 95.487 91.7014 94.0919 91.4554ZM95.2308 83.9612C94.6564 83.8599 94.1371 83.9852 93.6732 84.3371C93.2101 84.6838 92.8659 85.226 92.6406 85.9637L96.8107 86.699L96.8297 86.5913C96.9162 85.8609 96.8198 85.2674 96.5407 84.811C96.2624 84.3494 95.8258 84.0661 95.2308 83.9612ZM104.286 85.8277C104.077 85.7538 103.847 85.6947 103.596 85.6504C102.662 85.4858 101.959 85.7716 101.485 86.5079L100.443 92.4167L99.02 92.1657L100.488 83.841L101.873 84.0852L101.726 85.051C102.324 84.3896 103.051 84.1344 103.908 84.2854C104.185 84.3343 104.389 84.4072 104.52 84.5044L104.286 85.8277ZM111.082 85.7091L110.944 86.7636C111.721 86.0756 112.622 85.822 113.648 86.0029C115.408 86.3131 116.12 87.4621 115.785 89.4498L114.815 94.9509L113.392 94.6999L114.363 89.1911C114.464 88.5901 114.404 88.122 114.183 87.7868C113.967 87.4526 113.574 87.2353 113.004 87.1349C112.543 87.0535 112.116 87.1051 111.724 87.2898C111.332 87.4745 111.003 87.7497 110.737 88.1154L109.691 94.0474L108.268 93.7964L109.736 85.4717L111.082 85.7091ZM122.247 95.4124C121.578 95.9661 120.707 96.1485 119.635 95.9594C118.748 95.803 118.116 95.4271 117.74 94.8319C117.37 94.2325 117.271 93.427 117.444 92.4157L118.399 86.9992L119.822 87.2502L118.874 92.6282C118.652 93.89 119.053 94.6113 120.079 94.7922C121.167 94.9839 121.961 94.7063 122.463 93.9591L123.531 87.9041L124.954 88.1551L123.486 96.4798L122.132 96.241L122.247 95.4124Z" fill="#A0D9F7"/>
<path d="M42.5204 99.4576L41.8244 103.405L39.5163 102.998L41.4915 91.7954L45.8616 92.566C46.7028 92.7143 47.4143 92.9984 47.996 93.4183C48.5829 93.8391 48.998 94.3645 49.2413 94.9944C49.4854 95.6192 49.5438 96.2932 49.4162 97.0164C49.2227 98.1141 48.6929 98.9145 47.8267 99.4175C46.9666 99.9164 45.8723 100.049 44.5439 99.8144L42.5204 99.4576ZM42.85 97.588L44.912 97.9516C45.5224 98.0592 46.0119 97.9975 46.3805 97.7663C46.7543 97.5361 46.9882 97.1542 47.0823 96.6208C47.1791 96.072 47.0957 95.5998 46.8323 95.2043C46.5688 94.8088 46.1534 94.5557 45.5858 94.445L43.47 94.072L42.85 97.588ZM55.3194 99.3504C55.024 99.256 54.7609 99.1885 54.5301 99.1478C53.6889 98.9994 53.0873 99.1869 52.7253 99.7101L51.7648 105.157L49.5413 104.765L51.0092 96.4406L53.1096 96.8109L52.9962 97.8143C53.5771 97.1287 54.2626 96.8556 55.0525 96.9948C55.2987 97.0383 55.5236 97.1123 55.7273 97.217L55.3194 99.3504ZM55.4206 101.431C55.5662 100.605 55.855 99.897 56.287 99.3068C56.7189 98.7166 57.2636 98.297 57.921 98.048C58.5835 97.7999 59.3097 97.7455 60.0996 97.8848C61.2229 98.0829 62.0779 98.588 62.6645 99.4001C63.2563 100.213 63.4892 101.217 63.3633 102.411L63.2783 102.983C63.0531 104.26 62.5157 105.223 61.6662 105.872C60.8176 106.516 59.7931 106.732 58.5929 106.52C57.3927 106.308 56.5013 105.755 55.9189 104.859C55.3416 103.963 55.1696 102.854 55.403 101.531L55.4206 101.431ZM57.6156 101.984C57.4763 102.774 57.5184 103.406 57.7417 103.879C57.9659 104.347 58.355 104.63 58.909 104.727C59.4475 104.822 59.9043 104.691 60.2793 104.334C60.6552 103.972 60.9232 103.337 61.0832 102.429C61.2198 101.655 61.1743 101.028 60.9468 100.549C60.7192 100.07 60.331 99.7819 59.7822 99.6851C59.2385 99.5893 58.7804 99.728 58.4078 100.101C58.0361 100.469 57.7721 101.097 57.6156 101.984ZM67.7331 108.132C66.5124 107.916 65.5833 107.366 64.946 106.482C64.3138 105.598 64.1076 104.533 64.3274 103.287L64.3653 103.072C64.5128 102.235 64.8059 101.518 65.2448 100.918C65.6846 100.313 66.2307 99.8861 66.8829 99.6362C67.5412 99.382 68.2499 99.3219 69.0091 99.4558C70.1478 99.6565 70.9795 100.173 71.5043 101.006C72.0342 101.84 72.1829 102.916 71.9505 104.234L71.7904 105.142L66.4894 104.208C66.4653 104.764 66.6039 105.238 66.905 105.63C67.2113 106.022 67.6415 106.267 68.1954 106.365C69.052 106.516 69.7761 106.323 70.3676 105.788L71.2445 107.204C70.8279 107.617 70.3114 107.907 69.695 108.073C69.0795 108.234 68.4256 108.254 67.7331 108.132ZM68.6839 101.255C68.2428 101.177 67.8575 101.262 67.5281 101.511C67.2038 101.761 66.9543 102.156 66.7797 102.696L69.8726 103.241L69.9038 103.064C69.9804 102.57 69.914 102.167 69.7045 101.855C69.496 101.538 69.1558 101.338 68.6839 101.255ZM79.8114 99.6946C79.3793 99.5655 78.9735 99.4675 78.594 99.4006C77.5886 99.2233 77.0104 99.563 76.8594 100.42L76.7604 100.981L78.4145 101.273L78.1269 102.904L76.4728 102.612L75.2925 109.306L73.0613 108.912L74.2416 102.219L73.0029 102L73.2905 100.369L74.5292 100.588L74.6431 99.9415C74.8234 98.979 75.2567 98.2912 75.9431 97.8781C76.6303 97.4598 77.5176 97.3465 78.605 97.5383C79.3795 97.6748 80.6217 97.9785 82.3316 98.4492L80.2627 110.182L78.0315 109.789L79.8114 99.6946ZM85.9213 111.339C84.7006 111.123 83.7715 110.574 83.1342 109.689C82.502 108.805 82.2957 107.74 82.5155 106.494L82.5535 106.279C82.7009 105.443 82.9941 104.725 83.433 104.125C83.8728 103.52 84.4188 103.093 85.0711 102.843C85.7294 102.589 86.4381 102.529 87.1972 102.663C88.3359 102.864 89.1677 103.38 89.6924 104.213C90.2224 105.047 90.3711 106.123 90.1387 107.442L89.9786 108.349L84.6776 107.415C84.6535 107.971 84.792 108.445 85.0932 108.837C85.3995 109.229 85.8296 109.474 86.3836 109.572C87.2402 109.723 87.9642 109.531 88.5558 108.995L89.4326 110.411C89.016 110.824 88.4995 111.114 87.8832 111.28C87.2677 111.441 86.6137 111.461 85.9213 111.339ZM86.8721 104.462C86.431 104.384 86.0457 104.469 85.7163 104.718C85.392 104.968 85.1425 105.363 84.9679 105.903L88.0608 106.448L88.092 106.271C88.1686 105.777 88.1021 105.374 87.8927 105.062C87.6842 104.745 87.344 104.545 86.8721 104.462ZM95.5559 110.507C95.6038 110.235 95.5054 109.998 95.2607 109.796C95.022 109.59 94.616 109.373 94.0427 109.145C92.1361 108.381 91.2945 107.365 91.5179 106.098C91.6481 105.36 92.0619 104.798 92.7591 104.413C93.4623 104.024 94.3089 103.917 95.2988 104.091C96.3554 104.278 97.1553 104.675 97.6985 105.284C98.2468 105.894 98.4508 106.596 98.3107 107.391L96.0871 106.999C96.1432 106.681 96.0868 106.401 95.9178 106.16C95.7497 105.913 95.4476 105.752 95.0117 105.675C94.6372 105.609 94.3325 105.642 94.0975 105.776C93.8625 105.909 93.7219 106.106 93.6758 106.368C93.6324 106.614 93.7125 106.834 93.9162 107.029C94.1259 107.219 94.4978 107.419 95.0318 107.63C95.5668 107.835 96.0119 108.041 96.367 108.246C97.4656 108.884 97.9213 109.734 97.7341 110.796C97.6003 111.555 97.166 112.113 96.4314 112.47C95.6977 112.822 94.8153 112.907 93.7844 112.725C93.0868 112.602 92.4879 112.37 91.9876 112.028C91.4933 111.681 91.1303 111.266 90.8985 110.78C90.6677 110.29 90.5965 109.794 90.6852 109.291L92.7933 109.663C92.7442 110.061 92.837 110.39 93.0717 110.648C93.3065 110.906 93.6521 111.076 94.1086 111.156C94.5344 111.231 94.869 111.208 95.1124 111.087C95.3619 110.962 95.5097 110.768 95.5559 110.507ZM103.665 111.937C103.713 111.665 103.615 111.428 103.37 111.226C103.131 111.02 102.725 110.803 102.152 110.575C100.245 109.811 99.4038 108.795 99.6272 107.528C99.7574 106.789 100.171 106.228 100.868 105.843C101.572 105.454 102.418 105.347 103.408 105.521C104.465 105.708 105.265 106.105 105.808 106.714C106.356 107.324 106.56 108.026 106.42 108.821L104.196 108.429C104.252 108.111 104.196 107.831 104.027 107.59C103.859 107.343 103.557 107.182 103.121 107.105C102.747 107.039 102.442 107.072 102.207 107.205C101.972 107.338 101.831 107.536 101.785 107.797C101.742 108.044 101.822 108.264 102.025 108.459C102.235 108.649 102.607 108.849 103.141 109.06C103.676 109.265 104.121 109.471 104.476 109.676C105.575 110.314 106.031 111.164 105.843 112.226C105.71 112.985 105.275 113.543 104.541 113.9C103.807 114.252 102.925 114.337 101.894 114.155C101.196 114.032 100.597 113.8 100.097 113.457C99.6026 113.111 99.2396 112.695 99.0078 112.21C98.7769 111.72 98.7058 111.224 98.7945 110.721L100.903 111.093C100.853 111.491 100.946 111.82 101.181 112.078C101.416 112.336 101.761 112.505 102.218 112.586C102.644 112.661 102.978 112.638 103.222 112.517C103.471 112.392 103.619 112.198 103.665 111.937ZM110.665 115.702C109.444 115.486 108.515 114.936 107.877 114.052C107.245 113.168 107.039 112.103 107.259 110.857L107.297 110.641C107.444 109.805 107.737 109.088 108.176 108.488C108.616 107.883 109.162 107.456 109.814 107.206C110.473 106.952 111.181 106.892 111.941 107.026C113.079 107.227 113.911 107.743 114.436 108.576C114.966 109.41 115.114 110.486 114.882 111.804L114.722 112.712L109.421 111.778C109.397 112.334 109.535 112.808 109.837 113.199C110.143 113.592 110.573 113.837 111.127 113.935C111.983 114.086 112.708 113.893 113.299 113.358L114.176 114.774C113.759 115.187 113.243 115.477 112.626 115.643C112.011 115.804 111.357 115.824 110.665 115.702ZM111.615 108.825C111.174 108.747 110.789 108.832 110.46 109.081C110.135 109.331 109.886 109.726 109.711 110.266L112.804 110.811L112.835 110.634C112.912 110.14 112.845 109.737 112.636 109.425C112.427 109.108 112.087 108.908 111.615 108.825ZM118.899 108.411L118.799 109.385C119.525 108.747 120.388 108.515 121.389 108.692C122.271 108.847 122.882 109.222 123.221 109.816C123.561 110.41 123.645 111.223 123.473 112.256L122.525 117.634L120.301 117.242L121.24 111.918C121.323 111.446 121.281 111.087 121.113 110.84C120.946 110.589 120.623 110.421 120.146 110.337C119.521 110.227 119.004 110.411 118.597 110.889L117.562 116.759L115.339 116.367L116.807 108.042L118.899 108.411Z" fill="white"/>
<path d="M61.6735 58.0054C60.9187 58.6418 59.9354 59.0673 58.7234 59.282C57.5129 59.489 56.2151 59.4704 54.8302 59.2262C53.3761 58.9698 52.1545 58.4292 51.1656 57.6043C50.1857 56.773 49.5021 55.7006 49.115 54.3868C48.7356 53.0744 48.682 51.6013 48.9542 49.9675L49.1556 48.825C49.4514 47.1477 49.9879 45.747 50.7653 44.6227C51.5517 43.4921 52.5327 42.6972 53.7084 42.2382C54.8932 41.7728 56.2011 41.6662 57.6321 41.9186C59.6248 42.2699 61.0987 43.0217 62.0538 44.1738C63.0102 45.3182 63.4322 46.8166 63.3198 48.6689L59.9499 48.0747C59.9656 47.0859 59.7474 46.3215 59.2952 45.7817C58.8507 45.2432 58.1668 44.8925 57.2436 44.7297C56.0664 44.5222 55.0921 44.8065 54.3206 45.5828C53.549 46.359 53.0055 47.6197 52.6898 49.3649L52.5006 50.4382C52.1899 52.2 52.2899 53.5901 52.8005 54.6083C53.3111 55.6265 54.2127 56.2495 55.5053 56.4775C56.8056 56.7067 57.7815 56.5932 58.4331 56.1369L58.9439 53.2402L55.7933 52.6847L56.243 50.1342L62.8558 51.3002L61.6735 58.0054ZM71.4201 55.571L68.6619 55.0847L67.5773 61.2359L64.115 60.6254L67.0779 43.8221L73.3214 44.923C75.3064 45.273 76.7595 45.9854 77.6806 47.0601C78.6017 48.1348 78.9199 49.48 78.635 51.0957C78.4328 52.2421 78.0139 53.1559 77.3781 53.8371C76.7514 54.5119 75.8941 54.9875 74.8062 55.2637L77.2307 62.7714L77.2022 62.933L73.4861 62.2777L71.4201 55.571ZM69.1564 52.2803L71.9492 52.7727C72.8186 52.926 73.5305 52.8254 74.0848 52.471C74.6405 52.1089 74.9869 51.5393 75.1239 50.7622C75.2637 49.9697 75.1466 49.3065 74.7727 48.7725C74.4065 48.2399 73.7579 47.8915 72.827 47.7274L70.0456 47.237L69.1564 52.2803ZM89.3072 61.4976L83.2368 60.4272L81.4723 63.6859L77.7908 63.0368L87.0087 47.3364L90.217 47.9021L93.5439 65.8145L89.8624 65.1653L89.3072 61.4976ZM84.6661 57.7876L88.8669 58.5284L87.864 51.8663L84.6661 57.7876ZM108.846 54.0784L103.698 53.1709L101.23 67.1697L97.7678 66.5593L100.236 52.5604L95.1582 51.665L95.6527 48.8606L109.34 51.274L108.846 54.0784ZM112.044 69.0765L108.581 68.466L111.544 51.6627L115.007 52.2732L112.044 69.0765ZM124.754 66.7721C124.869 66.1181 124.727 65.5773 124.326 65.1497C123.927 64.7144 123.161 64.1985 122.029 63.6022C120.898 62.9982 120.015 62.446 119.382 61.9455C117.655 60.5781 116.946 59.0211 117.254 57.2746C117.414 56.3668 117.811 55.6037 118.443 54.9854C119.085 54.3608 119.918 53.9325 120.943 53.7007C121.975 53.4702 123.087 53.4601 124.28 53.6703C125.48 53.882 126.511 54.2898 127.372 54.8939C128.235 55.4902 128.854 56.2301 129.23 57.1134C129.613 57.9982 129.716 58.9445 129.538 59.9524L126.076 59.3419C126.212 58.5725 126.075 57.9335 125.664 57.4249C125.256 56.9085 124.613 56.573 123.736 56.4184C122.889 56.2692 122.2 56.334 121.667 56.6128C121.135 56.884 120.817 57.3119 120.714 57.8967C120.618 58.4429 120.81 58.9489 121.292 59.4145C121.78 59.8815 122.531 60.3708 123.544 60.8825C125.409 61.8223 126.714 62.81 127.46 63.8458C128.205 64.8817 128.463 66.0535 128.232 67.3615C127.976 68.8156 127.224 69.8612 125.977 70.4981C124.732 71.1273 123.178 71.2778 121.316 70.9495C120.024 70.7216 118.888 70.2794 117.909 69.6228C116.931 68.9586 116.234 68.1653 115.818 67.2431C115.409 66.3221 115.3 65.3193 115.492 64.2345L118.965 64.847C118.638 66.7012 119.583 67.8236 121.799 68.2143C122.622 68.3595 123.293 68.3074 123.813 68.0579C124.335 67.8008 124.648 67.3722 124.754 66.7721ZM133.888 67.6092L131.118 67.1208L132.779 55.407L136.334 56.0338L133.888 67.6092ZM132.182 69.1884C132.743 69.2874 133.164 69.5322 133.444 69.9227C133.732 70.3146 133.831 70.7683 133.74 71.2838C133.65 71.7916 133.403 72.1804 132.999 72.4502C132.602 72.7213 132.123 72.8074 131.561 72.7083C131.007 72.6106 130.586 72.3659 130.298 71.974C130.018 71.5835 129.923 71.1343 130.012 70.6265C130.102 70.1187 130.345 69.7292 130.742 69.4581C131.148 69.1806 131.628 69.0907 132.182 69.1884Z" fill="white"/>
<path d="M43.1731 122.975L46.3624 116.945L47.8165 117.202L43.3634 125L42.2786 124.809L40.7305 115.952L42.1846 116.209L43.1731 122.975ZM52.9847 119.43C52.7756 119.356 52.5454 119.297 52.294 119.252C51.3605 119.088 50.657 119.374 50.1834 120.11L49.1415 126.019L47.7181 125.768L49.186 117.443L50.5709 117.687L50.4244 118.653C51.0223 117.992 51.7495 117.736 52.6061 117.887C52.8831 117.936 53.0871 118.009 53.218 118.106L52.9847 119.43ZM54.6041 126.982L53.1808 126.731L54.6486 118.406L56.072 118.657L54.6041 126.982ZM54.9226 116.178C54.9633 115.947 55.0669 115.764 55.2334 115.63C55.4051 115.496 55.6294 115.454 55.9063 115.502C56.1833 115.551 56.3796 115.668 56.4952 115.852C56.6108 116.036 56.6482 116.244 56.6075 116.475C56.5668 116.706 56.4611 116.885 56.2903 117.014C56.1196 117.142 55.8957 117.182 55.6187 117.133C55.3418 117.085 55.145 116.971 55.0286 116.791C54.9172 116.613 54.8819 116.409 54.9226 116.178ZM59.8266 119.319L58.1891 128.606C57.9069 130.206 57.0401 130.878 55.5885 130.622C55.2756 130.567 54.9939 130.47 54.7435 130.33L54.9443 129.192C55.1012 129.262 55.313 129.32 55.5797 129.367C55.8977 129.423 56.1542 129.379 56.3491 129.233C56.5482 129.094 56.6853 128.811 56.7603 128.385L58.4032 119.068L59.8266 119.319ZM58.6464 116.834C58.6862 116.609 58.7893 116.429 58.9558 116.294C59.1284 116.155 59.3506 116.11 59.6225 116.158C59.8994 116.206 60.0957 116.323 60.2113 116.507C60.3269 116.692 60.3643 116.899 60.3236 117.13C60.2829 117.361 60.1772 117.541 60.0064 117.669C59.8357 117.798 59.6118 117.838 59.3349 117.789C59.0579 117.74 58.8637 117.626 58.7524 117.448C58.641 117.27 58.6057 117.065 58.6464 116.834ZM68.4243 125.222C68.2 126.494 67.7272 127.466 67.0059 128.137C66.2855 128.804 65.4329 129.05 64.4481 128.876C63.3966 128.691 62.6492 128.176 62.2059 127.331L61.9671 128.28L60.6591 128.05L62.7429 116.232L64.1663 116.483L63.3889 120.891C64.0891 120.28 64.9444 120.063 65.9549 120.241C66.9653 120.419 67.6904 120.941 68.1301 121.807C68.575 122.673 68.6803 123.771 68.446 125.099L68.4243 125.222ZM67.0295 124.81C67.2004 123.84 67.1452 123.058 66.8639 122.464C66.5827 121.87 66.0907 121.511 65.388 121.387C64.4493 121.221 63.698 121.538 63.1339 122.338L62.499 125.939C62.7812 126.887 63.3839 127.443 64.3072 127.606C64.9894 127.726 65.5668 127.556 66.0396 127.094C66.5123 126.633 66.8422 125.871 67.0295 124.81ZM71.0535 129.882L69.6301 129.631L71.7139 117.814L73.1372 118.065L71.0535 129.882ZM74.885 130.558L73.4616 130.307L74.9295 121.982L76.3529 122.233L74.885 130.558ZM75.2034 119.754C75.2441 119.523 75.3478 119.34 75.5143 119.206C75.6859 119.072 75.9103 119.03 76.1872 119.078C76.4642 119.127 76.6605 119.244 76.7761 119.428C76.8917 119.613 76.9291 119.82 76.8884 120.051C76.8477 120.282 76.742 120.461 76.5712 120.59C76.4005 120.719 76.1766 120.758 75.8996 120.71C75.6227 120.661 75.4259 120.547 75.3094 120.368C75.1981 120.189 75.1627 119.985 75.2034 119.754ZM80.1074 122.895L78.47 132.182C78.1878 133.782 77.3209 134.454 75.8694 134.198C75.5565 134.143 75.2748 134.046 75.0244 133.907L75.2252 132.768C75.3821 132.838 75.5939 132.896 75.8606 132.943C76.1786 132.999 76.4351 132.955 76.6299 132.809C76.8291 132.67 76.9661 132.387 77.0412 131.962L78.6841 122.644L80.1074 122.895ZM78.9273 120.41C78.967 120.185 79.0702 120.005 79.2367 119.87C79.4093 119.731 79.6315 119.686 79.9033 119.734C80.1803 119.783 80.3766 119.899 80.4922 120.083C80.6078 120.268 80.6452 120.475 80.6045 120.706C80.5638 120.937 80.4581 121.117 80.2873 121.245C80.1166 121.374 79.8927 121.414 79.6157 121.365C79.3388 121.316 79.1446 121.202 79.0332 121.024C78.9219 120.846 78.8866 120.641 78.9273 120.41ZM84.0272 130.179L87.2165 124.149L88.6706 124.405L84.2176 132.204L83.1328 132.012L81.5847 123.156L83.0388 123.412L84.0272 130.179ZM91.892 133.715C90.7635 133.516 89.9105 132.985 89.3329 132.122C88.7562 131.253 88.5773 130.198 88.7962 128.957L88.8423 128.696C88.9879 127.87 89.2742 127.161 89.701 126.57C90.1339 125.975 90.6645 125.545 91.2929 125.28C91.9274 125.011 92.5755 124.935 93.2371 125.052C94.3194 125.243 95.0977 125.747 95.5721 126.566C96.0465 127.385 96.1666 128.459 95.9324 129.787L95.8279 130.379L90.1883 129.385C90.0642 130.209 90.1855 130.916 90.5525 131.504C90.9255 132.088 91.4659 132.442 92.1737 132.567C92.6764 132.656 93.1202 132.628 93.5052 132.485C93.8901 132.341 94.2433 132.123 94.5645 131.831L95.3146 132.661C94.428 133.61 93.2871 133.961 91.892 133.715ZM93.0309 126.221C92.4565 126.12 91.9372 126.245 91.4732 126.597C91.0102 126.944 90.666 127.486 90.4407 128.224L94.6108 128.959L94.6298 128.851C94.7162 128.121 94.6199 127.527 94.3408 127.071C94.0625 126.609 93.6259 126.326 93.0309 126.221ZM99.6343 126.338L99.496 127.393C100.273 126.705 101.175 126.451 102.2 126.632C103.96 126.942 104.672 128.091 104.337 130.079L103.367 135.58L101.944 135.329L102.915 129.82C103.016 129.219 102.956 128.751 102.735 128.416C102.519 128.082 102.126 127.865 101.557 127.764C101.095 127.683 100.668 127.734 100.276 127.919C99.8836 128.104 99.5548 128.379 99.2894 128.745L98.2434 134.677L96.82 134.426L98.2879 126.101L99.6343 126.338ZM105.914 131.666C106.139 130.389 106.623 129.416 107.364 128.749C108.107 128.076 108.968 127.826 109.948 127.998C110.923 128.17 111.636 128.64 112.088 129.407L112.853 125.068L114.276 125.319L112.192 137.136L110.884 136.906L110.972 136.001C110.28 136.598 109.426 136.807 108.411 136.628C107.446 136.458 106.729 135.924 106.257 135.027C105.792 134.13 105.671 133.046 105.895 131.774L105.914 131.666ZM107.309 132.079C107.142 133.022 107.207 133.795 107.503 134.398C107.799 135 108.29 135.361 108.977 135.483C109.88 135.642 110.611 135.353 111.169 134.616L111.843 130.792C111.556 129.932 110.971 129.424 110.089 129.269C109.391 129.146 108.8 129.319 108.315 129.789C107.831 130.259 107.495 131.022 107.309 132.079ZM116.558 134.646L115.273 134.419L116.591 126.361L118.084 126.625L116.558 134.646ZM114.688 136.839C114.729 136.608 114.832 136.428 114.998 136.298C115.169 136.164 115.394 136.122 115.671 136.171C115.948 136.22 116.144 136.336 116.259 136.521C116.376 136.7 116.414 136.905 116.373 137.136C116.332 137.367 116.227 137.546 116.056 137.675C115.886 137.798 115.663 137.835 115.386 137.787C115.109 137.738 114.912 137.626 114.794 137.452C114.683 137.274 114.647 137.069 114.688 136.839Z" fill="#A0D9F7"/>
</svg>
