<?xml version="1.0" encoding="utf-8"?>
<!-- Generator: Adobe Illustrator 19.2.1, SVG Export Plug-In . SVG Version: 6.00 Build 0)  -->
<svg version="1.1" id="Laag_1" xmlns="http://www.w3.org/2000/svg" xmlns:xlink="http://www.w3.org/1999/xlink" x="0px" y="0px"
	 viewBox="0 0 100 100" style="enable-background:new 0 0 100 100;" xml:space="preserve">
<style type="text/css">
	.st0{clip-path:url(#SVGID_2_);fill:#009EE2;}
	.st1{fill:#FFFFFF;}
	.st2{fill:#A0D9F7;}
</style>
<g>
	<defs>
		<rect id="SVGID_1_" x="-7" y="-1.8" width="112.8" height="102.8"/>
	</defs>
	<clipPath id="SVGID_2_">
		<use xlink:href="#SVGID_1_"  style="overflow:visible;"/>
	</clipPath>
	<path class="st0" d="M42.3,92.9C64.6,96.8,85.8,82,89.7,59.7c3.9-22.3-10.9-43.5-33.2-47.4C34.3,8.3,13,23.2,9.1,45.5
		C5.2,67.7,20,89,42.3,92.9"/>
</g>
<g>
	<path class="st1" d="M38.1,24.7c0.2-0.8,0.1-1.5-0.8-1.7c-1.1-0.2-1.4,1.3-1.7,2.9c-0.5,2.7-0.3,3.2,0.7,3.4c0.3,0.1,0.6,0,0.9,0
		l0.3-1.9l-1-0.2l0.2-1.3l2.7,0.5l-0.8,4.3c-0.5,0-1.7,0-2.5-0.1c-3-0.5-3.1-1.8-2.5-5c0.4-2.1,0.9-4.3,3.8-3.8
		c1.7,0.3,2.7,1.5,2.2,3.2L38.1,24.7z"/>
	<path class="st1" d="M42.1,31.4l-1.8-0.3l1.5-8.5l3.3,0.6c1.2,0.2,1.9,1.1,1.6,2.6c-0.2,1.1-0.8,1.8-1.9,1.8l0,0
		c0.4,0.1,1.5,0.4,1.2,1.9c-0.1,0.5-0.3,2.1-0.2,2.5l-1.7-0.3c-0.1-0.6,0-1.1,0.1-1.7c0.2-1,0.4-1.9-0.9-2.1l-0.5-0.1L42.1,31.4z
		 M43,26.6l0.8,0.1c0.7,0.1,1-0.5,1.1-1.1c0.1-0.8-0.1-1.2-0.7-1.3l-0.8-0.1L43,26.6z"/>
	<path class="st1" d="M46.3,32.2l3.9-8.1l2.3,0.4l0.8,8.9l-1.9-0.3l-0.1-2l-2.4-0.4l-0.8,1.8L46.3,32.2z M50.9,25.9L50.9,25.9
		l-1.5,3.5l1.7,0.3L50.9,25.9z"/>
	<path class="st1" d="M60,25.8l-0.2,1.4l-2-0.3L56.5,34l-1.8-0.3l1.2-7.1l-2-0.3l0.2-1.4L60,25.8z"/>
	<path class="st1" d="M59.3,34.5l1.5-8.5l1.8,0.3l-1.5,8.5L59.3,34.5z"/>
	<path class="st1" d="M64.9,35.6c-2.2-0.4-2.4-1.8-2-3.2l1.8,0.3c-0.1,0.8-0.2,1.5,0.7,1.7c0.6,0.1,1-0.2,1.1-0.8
		c0.3-1.5-3.3-2.3-2.8-4.8c0.2-1.3,1.1-2.3,3.2-1.9c1.7,0.3,2.5,1.2,2,3l-1.7-0.3c0.1-0.6,0.1-1.3-0.6-1.4c-0.6-0.1-1,0.2-1.1,0.7
		c-0.3,1.6,3.3,2.1,2.8,4.8C67.9,35.8,66.2,35.8,64.9,35.6z"/>
	<path class="st1" d="M71.3,35.1l-0.2,1.4l-1.4-0.2l0.2-1.4L71.3,35.1z M71.3,34.2L70.2,34l0.8-6.3l1.6,0.3L71.3,34.2z"/>
</g>
<g>
	<path class="st2" d="M19.1,41.8l1.1-6.4l1.9,0.3c0.9,0.2,1.7,0.6,1.5,2.1c-0.3,1.4-1.4,1.5-2.1,1.4l-1.1-0.2l-0.5,2.8L19.1,41.8z
		 M20.6,38.4l0.9,0.2c0.3,0.1,1.1,0.1,1.3-0.9c0.2-1-0.5-1.2-0.7-1.2l-1.1-0.2L20.6,38.4z"/>
	<path class="st2" d="M25.3,39L25.3,39c0.4-0.6,0.8-0.6,1.5-0.5l-0.1,0.8c-0.1,0-0.1,0-0.2-0.1c-0.1,0-0.1,0-0.2-0.1
		c-0.8-0.1-1.1,0.4-1.2,1l-0.5,2.6l-0.7-0.1l0.8-4.5l0.7,0.1L25.3,39z"/>
	<path class="st2" d="M27,40.9c0.2-1.3,0.6-2.4,2.1-2.1c1.5,0.3,1.5,1.4,1.3,2.7c-0.3,2-1.1,2.1-2.1,2C27.4,43.3,26.7,42.9,27,40.9z
		 M29.7,41.1c0.2-1.2-0.1-1.5-0.7-1.6c-0.6-0.1-1,0.1-1.2,1.3c-0.3,1.4-0.2,2,0.6,2.1S29.5,42.5,29.7,41.1z"/>
	<path class="st2" d="M32,44l-0.7-0.1l1.1-6.4l0.7,0.1L32.7,40l0,0c0.3-0.3,0.7-0.4,1.1-0.4c1.4,0.3,1.2,1.5,1.1,2.7
		c-0.3,2-1.1,2.1-1.8,2c-0.5-0.1-0.7-0.3-0.9-0.8l0,0L32,44z M32.9,43.7c0.9,0.2,1.1-0.8,1.2-1.5c0.2-1.2,0.2-1.8-0.6-2
		c-0.8-0.1-1,0.8-1.1,1.4C32.3,42.3,32,43.5,32.9,43.7z"/>
	<path class="st2" d="M36.7,42.8c-0.2,1.2,0.1,1.5,0.6,1.6c0.5,0.1,0.8-0.3,0.9-0.7l0.8,0.1c-0.2,1-0.9,1.3-1.8,1.2
		c-0.9-0.2-1.6-0.6-1.3-2.5c0.2-1.3,0.6-2.4,2.1-2.1c1.3,0.2,1.5,1,1.2,2.4l-0.1,0.4L36.7,42.8z M38.5,42.6c0.2-1.3-0.1-1.5-0.6-1.6
		c-0.5-0.1-0.9,0.1-1.1,1.3L38.5,42.6z"/>
	<path class="st2" d="M41.1,43.6c-0.2,1.2,0.1,1.5,0.6,1.6c0.5,0.1,0.8-0.3,0.9-0.7l0.8,0.1c-0.2,1-0.9,1.3-1.8,1.2
		c-0.9-0.2-1.6-0.6-1.3-2.5c0.2-1.3,0.6-2.4,2.1-2.1c1.3,0.2,1.5,1,1.2,2.4L43.6,44L41.1,43.6z M42.9,43.4c0.2-1.3-0.1-1.5-0.6-1.6
		c-0.5-0.1-0.9,0.1-1.1,1.3L42.9,43.4z"/>
	<path class="st2" d="M45.9,42.6L45.9,42.6c0.4-0.6,0.8-0.6,1.5-0.5l-0.1,0.8c-0.1,0-0.1,0-0.2-0.1c-0.1,0-0.1,0-0.2-0.1
		c-0.8-0.1-1.1,0.4-1.2,1l-0.5,2.6l-0.7-0.1l0.8-4.5l0.7,0.1L45.9,42.6z"/>
</g>
<g>
	<path class="st2" d="M50.8,43.7c0.7,0.2,1.3,0,1.4-0.8c0.1-0.6-0.1-1-0.7-1.1c-0.7-0.1-0.9,0.4-0.9,0.9l-0.8-0.1
		c0.1-1.1,0.7-1.6,1.9-1.4c1,0.2,1.6,0.8,1.4,1.9c-0.2,1.2-1.1,1.2-1.5,1.2l0,0c0.9,0.3,1.2,0.9,1,1.8c-0.2,1.2-1,1.7-2.1,1.4
		c-1.7-0.3-1.3-1.8-1.3-2.1l0.8,0.1c-0.1,0.6-0.1,1.2,0.6,1.3c0.7,0.1,1-0.3,1.1-0.9c0.2-1-0.2-1.3-1.1-1.4L50.8,43.7z"/>
	<path class="st2" d="M56.8,45.3c-0.3,1.6-0.5,3.2-2.2,2.9c-1.7-0.3-1.4-1.9-1.1-3.5c0.3-1.6,0.5-3.2,2.2-2.9
		C57.4,42.1,57.1,43.6,56.8,45.3z M54.2,45c-0.2,1-0.5,2.3,0.4,2.5c0.9,0.2,1.1-1.1,1.2-2.2c0.3-1.6,0.5-2.7-0.4-2.8
		C54.7,42.3,54.5,43.4,54.2,45z"/>
	<path class="st2" d="M62.6,42.9l0.7,0.1l-1.1,6.4l-0.7-0.1l0.1-0.5l0,0c-0.3,0.4-0.7,0.5-1.1,0.4c-0.7-0.1-1.4-0.5-1-2.5
		c0.2-1.1,0.5-2.4,1.9-2.1c0.4,0.1,0.7,0.3,0.9,0.7l0,0L62.6,42.9z M61.3,45.1c-0.8-0.1-1,0.5-1.2,1.7c-0.1,0.7-0.3,1.6,0.6,1.8
		c0.8,0.1,1-0.9,1.1-1.8C62,46.2,62.2,45.3,61.3,45.1z"/>
	<path class="st2" d="M66,49.4L66,49.4c-0.3,0.5-0.7,0.6-1.3,0.5c-0.9-0.2-1.1-0.8-1-1.7c0.2-1.3,1.6-1.2,2.6-1
		c0.1-0.6,0.2-1.2-0.5-1.4c-0.5-0.1-0.8,0.2-0.8,0.7l-0.8-0.1c0.2-1,0.8-1.2,1.7-1.1c1.1,0.2,1.3,0.8,1.2,1.6l-0.4,2.1
		c-0.1,0.4-0.1,0.7-0.1,1.1L65.8,50L66,49.4z M64.4,48.4c-0.1,0.4,0.1,0.9,0.6,0.9c0.4,0.1,1-0.1,1.2-1.5
		C65.5,47.7,64.6,47.5,64.4,48.4z"/>
	<path class="st2" d="M71.1,46.3l0.7,0.1L71,51.4c-0.2,1-0.9,1.1-1.9,0.9c-0.7-0.1-1.3-0.6-1.1-1.4l0.8,0.1
		c-0.1,0.4,0.2,0.7,0.6,0.8c0.5,0.1,0.8-0.2,0.9-0.6l0.2-0.9l0,0c-0.2,0.3-0.7,0.5-1.1,0.4c-1.2-0.2-1.3-1.3-1-2.6
		c0.4-2,1.4-2,1.8-1.9c0.5,0.1,0.8,0.4,0.9,0.8l0,0L71.1,46.3z M70.2,46.7c-0.8-0.1-1,0.8-1.1,1.4c-0.3,1.4,0,1.8,0.6,1.9
		c0.9,0.2,1-0.9,1.1-1.5C70.8,47.9,71.1,46.9,70.2,46.7z"/>
	<path class="st2" d="M73.4,49.3c-0.2,1.2,0.1,1.5,0.6,1.6c0.5,0.1,0.8-0.3,0.9-0.7l0.8,0.1c-0.2,1-0.9,1.3-1.8,1.2
		C73,51.4,72.3,51,72.7,49c0.2-1.3,0.6-2.4,2.1-2.1c1.3,0.2,1.5,1,1.2,2.4l-0.1,0.4L73.4,49.3z M75.3,49.1c0.2-1.3-0.1-1.5-0.6-1.6
		c-0.5-0.1-0.9,0.1-1.1,1.3L75.3,49.1z"/>
	<path class="st2" d="M79.2,52.4l0.5-3.1c0.1-0.5,0-0.9-0.6-1c-0.8-0.1-1,0.5-1.1,1.2l-0.5,2.6l-0.7-0.1l0.6-3.5
		c0.1-0.3,0.1-0.6,0.1-0.9l0.8,0.1l-0.1,0.6l0,0c0.4-0.5,0.7-0.6,1.3-0.5c1,0.2,1.1,0.8,0.9,1.7l-0.5,3.1L79.2,52.4z"/>
</g>
<g>
	<path class="st2" d="M25.5,54.3l-0.7-0.1l1.1-6.4l0.7,0.1L25.5,54.3z"/>
	<path class="st2" d="M29.2,54.3L29.2,54.3c-0.3,0.5-0.7,0.6-1.3,0.5c-0.9-0.2-1.1-0.8-1-1.7c0.2-1.3,1.6-1.2,2.6-1
		c0.1-0.6,0.2-1.2-0.5-1.4c-0.5-0.1-0.8,0.2-0.8,0.7l-0.8-0.1c0.2-1,0.8-1.2,1.7-1.1c1.1,0.2,1.3,0.8,1.2,1.6L30,54
		c-0.1,0.4-0.1,0.7-0.1,1.1l-0.8-0.1L29.2,54.3z M27.7,53.3c-0.1,0.4,0.1,0.9,0.6,0.9c0.4,0.1,1-0.1,1.2-1.5
		C28.8,52.6,27.9,52.4,27.7,53.3z"/>
	<path class="st2" d="M33.6,55.7l0.5-3.1c0.1-0.5,0-0.9-0.6-1c-0.8-0.1-1,0.5-1.1,1.2l-0.5,2.6l-0.7-0.1l0.6-3.5
		c0.1-0.3,0.1-0.6,0.1-0.9l0.8,0.1l-0.1,0.6l0,0c0.4-0.5,0.7-0.6,1.3-0.5c1,0.2,1.1,0.8,0.9,1.7l-0.5,3.1L33.6,55.7z"/>
	<path class="st2" d="M38.8,52l0.7,0.1l-0.9,4.9c-0.2,1-0.9,1.1-1.9,0.9c-0.7-0.1-1.3-0.6-1.1-1.4l0.8,0.1c-0.1,0.4,0.2,0.7,0.6,0.8
		c0.5,0.1,0.8-0.2,0.9-0.6l0.2-0.9l0,0c-0.2,0.3-0.7,0.5-1.1,0.4c-1.2-0.2-1.3-1.3-1-2.6c0.4-2,1.4-2,1.8-1.9
		c0.5,0.1,0.8,0.3,0.9,0.8l0,0L38.8,52z M37.8,52.4c-0.8-0.1-1,0.8-1.1,1.4c-0.3,1.4,0,1.8,0.6,1.9c0.9,0.2,1-0.9,1.1-1.5
		C38.5,53.6,38.7,52.5,37.8,52.4z"/>
	<path class="st2" d="M45.5,51.2l0.7,0.1l-1.1,6.4l-0.7-0.1l0.1-0.5l0,0c-0.3,0.4-0.7,0.5-1.1,0.4c-0.7-0.1-1.4-0.5-1-2.5
		c0.2-1.1,0.5-2.4,1.9-2.1c0.4,0.1,0.7,0.3,0.9,0.7l0,0L45.5,51.2z M44.2,53.5c-0.8-0.1-1,0.5-1.2,1.7c-0.1,0.7-0.3,1.6,0.6,1.8
		c0.8,0.1,1-0.9,1.1-1.8C44.9,54.6,45,53.6,44.2,53.5z"/>
	<path class="st2" d="M47.5,56.1c-0.2,1.2,0.1,1.6,0.6,1.7c0.5,0.1,0.8-0.3,0.9-0.7l0.8,0.1c-0.2,1-0.9,1.3-1.8,1.2
		c-0.9-0.2-1.6-0.6-1.3-2.5c0.2-1.3,0.6-2.4,2.1-2.1c1.3,0.2,1.5,1,1.2,2.4L50,56.5L47.5,56.1z M49.3,55.9c0.2-1.3-0.1-1.5-0.6-1.6
		c-0.5-0.1-0.9,0.1-1.1,1.3L49.3,55.9z"/>
	<path class="st2" d="M53.6,59.2l-0.7-0.1l1.1-6.4l0.7,0.1l-0.4,2.4l0,0c0.3-0.3,0.7-0.4,1.1-0.4c1.4,0.3,1.2,1.5,1.1,2.7
		c-0.3,2-1.1,2.1-1.8,2c-0.5-0.1-0.7-0.3-0.9-0.8l0,0L53.6,59.2z M54.5,58.9c0.9,0.2,1.1-0.8,1.2-1.5c0.2-1.2,0.2-1.8-0.6-2
		c-0.8-0.1-1,0.8-1.1,1.4C53.9,57.5,53.6,58.7,54.5,58.9z"/>
	<path class="st2" d="M58.3,58c-0.2,1.2,0.1,1.5,0.6,1.6c0.5,0.1,0.8-0.3,0.9-0.7l0.8,0.1c-0.2,1-0.9,1.3-1.8,1.2
		c-0.9-0.2-1.6-0.6-1.3-2.5c0.2-1.3,0.6-2.4,2.1-2.1c1.3,0.2,1.5,1,1.2,2.4l-0.1,0.4L58.3,58z M60.1,57.8c0.2-1.3-0.1-1.5-0.6-1.6
		c-0.5-0.1-0.9,0.1-1.1,1.3L60.1,57.8z"/>
	<path class="st2" d="M62.9,61c-1-0.2-1.5-0.7-1.3-1.7l0.8,0.1c0,0.3-0.1,0.9,0.6,1c0.4,0.1,0.8-0.1,0.9-0.5
		c0.1-0.8-2.1-1.2-1.8-2.5c0.1-0.5,0.5-1.2,1.8-0.9c0.8,0.1,1.4,0.6,1.2,1.5l-0.8-0.1c0.1-0.5-0.1-0.8-0.6-0.8
		c-0.4-0.1-0.7,0.1-0.8,0.5c-0.1,0.8,2.1,1.2,1.8,2.5C64.5,60.9,63.8,61.1,62.9,61z"/>
	<path class="st2" d="M66.4,56.9l0.2-0.9l0.8-0.2L67.1,57l1,0.2L68,57.7l-1-0.2l-0.5,2.7c0,0.3-0.1,0.6,0.5,0.8c0.1,0,0.2,0,0.3,0
		l-0.1,0.6c-0.2,0-0.5,0-0.7-0.1c-0.7-0.1-0.9-0.5-0.9-1l0.6-3.2l-0.7-0.1l0.1-0.5L66.4,56.9z"/>
	<path class="st2" d="M69,59.9c-0.2,1.2,0.1,1.5,0.6,1.6c0.5,0.1,0.8-0.3,0.9-0.7l0.8,0.1c-0.2,1-0.9,1.3-1.8,1.2
		c-0.9-0.2-1.6-0.6-1.3-2.5c0.2-1.3,0.6-2.4,2.1-2.1c1.3,0.2,1.5,1,1.2,2.5l-0.1,0.4L69,59.9z M70.9,59.7c0.2-1.3-0.1-1.5-0.6-1.6
		c-0.5-0.1-0.9,0.1-1.1,1.3L70.9,59.7z"/>
</g>
<g>
	<path class="st1" d="M14,63.6l1.1-6.4l2.4,0.4c1,0.2,1.8,0.6,1.6,2c-0.1,0.7-0.6,1.2-1.3,1.2l0,0c0.9,0.3,1.1,1,0.9,1.8
		c-0.3,1.6-1.7,1.4-2.3,1.3L14,63.6z M15.5,62.9l0.7,0.1c0.3,0,0.9,0.2,1.1-0.7c0.1-0.6-0.1-0.9-0.7-1.1l-0.8-0.1L15.5,62.9z
		 M16,60.1l0.9,0.2c0.3,0.1,0.7-0.1,0.8-0.7c0.1-0.5-0.2-0.9-0.6-0.9l-0.8-0.1L16,60.1z"/>
	<path class="st1" d="M20.7,64.8l-1.2-0.2l0.8-4.5l1.2,0.2L20.7,64.8z M21.8,58.4l-0.2,1l-1.2-0.2l0.2-1L21.8,58.4z"/>
	<path class="st1" d="M24.2,58.9l-1.1,6.4L21.9,65l1.1-6.4L24.2,58.9z"/>
	<path class="st1" d="M26.7,59.3l-1.1,6.4l-1.2-0.2l1.1-6.4L26.7,59.3z"/>
	<path class="st1" d="M28.2,64c-0.1,0.5-0.2,1.3,0.3,1.4c0.4,0.1,0.6-0.3,0.7-0.7l1.3,0.2c-0.1,0.5-0.3,0.9-0.7,1.1
		c-0.3,0.2-0.8,0.3-1.4,0.2C26.8,66,26.7,65,27,63.6c0.2-1.2,0.6-2.2,2.2-1.9c1.7,0.3,1.7,1.4,1.4,2.8L28.2,64z M29.4,63.5
		c0.1-0.4,0.2-1-0.4-1.2c-0.6-0.1-0.7,0.6-0.7,1L29.4,63.5z"/>
	<path class="st1" d="M33,62.9L33,62.9c0.2-0.2,0.3-0.3,0.5-0.3c0.2-0.1,0.4-0.1,0.6,0c0.6,0.1,1,0.5,0.9,1.2l-0.6,3.6L33.3,67
		l0.5-3.1c0.1-0.4,0.1-0.7-0.3-0.8c-0.4-0.1-0.5,0.2-0.6,0.6l-0.5,3.1l-1.2-0.2l0.8-4.5l1.2,0.2L33,62.9z"/>
	<path class="st1" d="M37.5,67.8l1.1-6.4l2.4,0.4c1,0.2,1.8,0.6,1.6,2C42.5,64.5,42,65,41.3,65l0,0c0.9,0.3,1.1,1,0.9,1.8
		c-0.3,1.6-1.7,1.4-2.3,1.3L37.5,67.8z M39.1,67l0.7,0.1c0.3,0,0.9,0.2,1.1-0.7c0.1-0.6-0.1-0.9-0.7-1.1l-0.8-0.1L39.1,67z
		 M39.5,64.2l0.9,0.2c0.3,0.1,0.7-0.1,0.8-0.7c0.1-0.5-0.2-0.9-0.6-0.9l-0.8-0.1L39.5,64.2z"/>
	<path class="st1" d="M44.4,66.9c-0.1,0.5-0.2,1.3,0.3,1.4c0.4,0.1,0.6-0.3,0.7-0.7l1.3,0.2c-0.1,0.5-0.3,0.9-0.7,1.1
		c-0.3,0.2-0.8,0.3-1.4,0.2c-1.6-0.3-1.6-1.3-1.4-2.7c0.2-1.2,0.6-2.2,2.2-1.9c1.7,0.3,1.7,1.4,1.4,2.8L44.4,66.9z M45.6,66.4
		c0.1-0.4,0.2-1-0.4-1.2c-0.6-0.1-0.7,0.6-0.7,1L45.6,66.4z"/>
	<path class="st1" d="M49.2,65.7L49.2,65.7c0.2-0.2,0.4-0.3,0.5-0.3c0.2-0.1,0.4-0.1,0.6,0c0.6,0.1,1,0.5,0.9,1.2l-0.6,3.6l-1.2-0.2
		l0.5-3.1c0.1-0.4,0.1-0.7-0.3-0.8c-0.4-0.1-0.5,0.2-0.6,0.6l-0.5,3.1l-1.2-0.2l0.8-4.5l1.2,0.2L49.2,65.7z"/>
	<path class="st1" d="M53.2,68.4c-0.1,0.5-0.2,1.3,0.3,1.4c0.4,0.1,0.6-0.3,0.7-0.7l1.3,0.2c-0.1,0.5-0.3,0.9-0.7,1.1
		c-0.3,0.2-0.8,0.3-1.4,0.2c-1.6-0.3-1.6-1.3-1.4-2.7c0.2-1.2,0.6-2.2,2.2-1.9c1.7,0.3,1.7,1.4,1.4,2.8L53.2,68.4z M54.5,67.9
		c0.1-0.4,0.2-1-0.4-1.2c-0.6-0.1-0.7,0.6-0.7,1L54.5,67.9z"/>
	<path class="st1" d="M58.1,67.3L58.1,67.3c0.2-0.2,0.3-0.3,0.5-0.3c0.2-0.1,0.4-0.1,0.6,0c0.6,0.1,1,0.5,0.9,1.2l-0.6,3.6l-1.2-0.2
		l0.5-3.1c0.1-0.4,0.1-0.7-0.3-0.8c-0.4-0.1-0.5,0.2-0.6,0.6l-0.5,3.1L56.1,71l0.8-4.5l1.2,0.2L58.1,67.3z"/>
	<path class="st1" d="M62.6,72.2l1.1-6.4l2.4,0.4c1,0.2,1.8,0.6,1.6,2c-0.1,0.7-0.6,1.2-1.3,1.2l0,0c0.9,0.3,1.1,1,0.9,1.8
		c-0.3,1.6-1.7,1.4-2.3,1.3L62.6,72.2z M64.1,71.4l0.7,0.1c0.3,0,0.9,0.2,1.1-0.7c0.1-0.6-0.1-0.9-0.7-1.1l-0.8-0.1L64.1,71.4z
		 M64.5,68.7l0.9,0.2c0.3,0.1,0.7-0.1,0.8-0.7c0.1-0.5-0.2-0.9-0.6-0.9L64.8,67L64.5,68.7z"/>
	<path class="st1" d="M70.1,73.1L70.1,73.1c-0.2,0.2-0.3,0.3-0.5,0.3c-0.2,0.1-0.4,0.1-0.6,0c-0.6-0.1-1-0.5-0.9-1.2l0.6-3.6
		l1.2,0.2L69.3,72c-0.1,0.4-0.1,0.7,0.3,0.8c0.4,0.1,0.5-0.2,0.6-0.6l0.5-3.1l1.2,0.2l-0.6,3.6c-0.1,0.3-0.1,0.6-0.1,0.9L70,73.5
		L70.1,73.1z"/>
	<path class="st1" d="M73.6,74.1l-1.2-0.2l0.8-4.5l1.2,0.2L73.6,74.1z M74.8,67.8l-0.2,1l-1.2-0.2l0.2-1L74.8,67.8z"/>
	<path class="st1" d="M74.7,74.3l1.1-6.4l1.2,0.2L76.4,72l0,0l1.5-1.7l1.3,0.2l-1.6,1.8l1,2.7l-1.4-0.2l-0.7-2.6l0,0l-0.4,2.4
		L74.7,74.3z"/>
</g>
<g>
	<path class="st2" d="M30.6,73.3l0.2-0.9l0.8-0.2l-0.2,1.2l1,0.2l-0.1,0.5l-1-0.2l-0.5,2.7c0,0.3-0.1,0.6,0.5,0.8c0.1,0,0.2,0,0.3,0
		l-0.1,0.6c-0.2,0-0.5,0-0.7-0.1c-0.7-0.1-0.9-0.5-0.9-1l0.6-3.2l-0.7-0.1l0.1-0.5L30.6,73.3z"/>
	<path class="st2" d="M33.6,74.6L33.6,74.6c0.4-0.6,0.8-0.6,1.5-0.5L35,74.8c-0.1,0-0.1,0-0.2-0.1c-0.1,0-0.1,0-0.2-0.1
		c-0.8-0.1-1.1,0.4-1.2,1L33,78.3l-0.7-0.1l0.8-4.5l0.7,0.1L33.6,74.6z"/>
	<path class="st2" d="M37.6,78.5L37.6,78.5c-0.3,0.5-0.7,0.6-1.3,0.5c-0.9-0.2-1.1-0.8-1-1.7c0.2-1.3,1.6-1.2,2.6-1
		c0.1-0.6,0.2-1.2-0.5-1.4c-0.5-0.1-0.8,0.2-0.8,0.7l-0.8-0.1c0.2-1,0.8-1.2,1.7-1.1c1.1,0.2,1.3,0.8,1.2,1.6l-0.4,2.1
		c-0.1,0.4-0.1,0.7-0.1,1.1l-0.8-0.1L37.6,78.5z M36.1,77.5c-0.1,0.4,0.1,0.9,0.6,0.9c0.4,0.1,1-0.1,1.2-1.5
		C37.1,76.8,36.2,76.6,36.1,77.5z"/>
	<path class="st2" d="M40.3,79.6l-0.7-0.1l0.8-4.5l0.7,0.1L40.3,79.6z M40.6,73.1l0.8,0.1l-0.1,0.8l-0.8-0.1L40.6,73.1z"/>
	<path class="st2" d="M44,80.3l0.5-3.1c0.1-0.5,0-0.9-0.6-1c-0.8-0.1-1,0.5-1.1,1.2L42.3,80l-0.7-0.1l0.6-3.5
		c0.1-0.3,0.1-0.6,0.1-0.9l0.8,0.1l-0.1,0.6l0,0c0.4-0.5,0.7-0.6,1.3-0.5c1,0.2,1.1,0.8,0.9,1.7l-0.5,3.1L44,80.3z"/>
	<path class="st2" d="M46.7,80.8l-0.7-0.1l0.8-4.5l0.7,0.1L46.7,80.8z M47,74.3l0.8,0.1l-0.1,0.8L46.9,75L47,74.3z"/>
	<path class="st2" d="M50.3,81.4l0.5-3.1c0.1-0.5,0-0.9-0.6-1c-0.8-0.1-1,0.5-1.1,1.2l-0.5,2.6L47.9,81l0.6-3.5
		c0.1-0.3,0.1-0.6,0.1-0.9l0.8,0.1l-0.1,0.6l0,0c0.4-0.5,0.7-0.6,1.3-0.5c1,0.2,1.1,0.8,0.9,1.7l-0.5,3.1L50.3,81.4z"/>
	<path class="st2" d="M55.5,77.7l0.7,0.1l-0.9,4.9c-0.2,1-0.9,1.1-1.9,0.9c-0.7-0.1-1.3-0.6-1.1-1.4l0.8,0.1
		c-0.1,0.4,0.2,0.7,0.6,0.8c0.5,0.1,0.8-0.2,0.9-0.6l0.2-0.9l0,0c-0.2,0.3-0.7,0.5-1.1,0.4c-1.2-0.2-1.3-1.3-1-2.6
		c0.4-2,1.4-2,1.8-1.9c0.5,0.1,0.8,0.4,0.9,0.8l0,0L55.5,77.7z M54.5,78.1c-0.8-0.1-1,0.8-1.1,1.4c-0.3,1.4,0,1.8,0.6,1.9
		c0.9,0.2,1-0.9,1.1-1.5C55.2,79.3,55.4,78.2,54.5,78.1z"/>
	<path class="st2" d="M58,82.8l-0.8-0.1l0.2-0.9l0.8,0.1L58,82.8z M57.5,81.2l0.7-4.9l1,0.2l-1,4.9L57.5,81.2z"/>
</g>
</svg>
