<?xml version="1.0" encoding="utf-8"?>
<!-- Generator: Adobe Illustrator 19.2.1, SVG Export Plug-In . SVG Version: 6.00 Build 0)  -->
<svg version="1.1" id="Laag_1" xmlns="http://www.w3.org/2000/svg" xmlns:xlink="http://www.w3.org/1999/xlink" x="0px" y="0px"
	 viewBox="0 0 100 100" style="enable-background:new 0 0 100 100;" xml:space="preserve">
<style type="text/css">
	.st0{clip-path:url(#SVGID_2_);fill:#E20613;}
	.st1{fill:#FFFFFF;}
	.st2{fill:#F5AE94;}
</style>
<g>
	<defs>
		<rect id="SVGID_1_" x="-7" y="-1.8" width="112.8" height="102.8"/>
	</defs>
	<clipPath id="SVGID_2_">
		<use xlink:href="#SVGID_1_"  style="overflow:visible;"/>
	</clipPath>
	<path class="st0" d="M42.3,92.9C64.6,96.8,85.8,82,89.7,59.7c3.9-22.3-10.9-43.5-33.2-47.4C34.3,8.3,13,23.2,9.1,45.5
		C5.2,67.7,20,89,42.3,92.9"/>
</g>
<g>
	<path class="st1" d="M38.6,33.6l0.4-2c4.4-4.1,5.2-4.5,5.5-5.9c0.1-0.6,0-1.1-0.7-1.3c-0.9-0.2-1.1,0.7-1.3,1.4l-2.3-0.4
		c0.2-2.1,1.6-3.1,3.7-2.7c2,0.3,3.2,1.4,2.8,3.5c-0.4,2.5-3.9,4.9-5.4,6l4.3,0.8l-0.3,1.7L38.6,33.6z"/>
	<path class="st1" d="M53.5,30.4c-0.6,3.5-1.3,5.8-4.3,5.2c-3-0.5-2.9-2.9-2.2-6.4c0.8-4.3,1.5-5.7,4.3-5.2
		C54,24.5,54.2,26,53.5,30.4z M49.2,29.6c-0.6,3.4-0.7,4.2,0.3,4.3c0.9,0.2,1.1-0.6,1.7-4c0.6-3.5,0.7-4.1-0.3-4.3
		C50,25.5,49.8,26.2,49.2,29.6z"/>
	<path class="st1" d="M54.8,27.9c0.3-1.7,0.9-3,2.9-2.6c2,0.3,2.1,1.8,1.8,3.5c-0.3,1.9-1,2.8-2.8,2.5
		C54.8,30.9,54.4,29.9,54.8,27.9z M57.2,37.2L56,37l6.8-11l1.2,0.2L57.2,37.2z M57.9,28.3c0.1-0.6,0.3-1.6-0.5-1.7s-1,0.9-1.1,1.5
		c-0.2,1.3-0.2,1.8,0.5,2C57.5,30.1,57.7,29.7,57.9,28.3z M60.7,34.5c0.3-1.7,0.9-3,2.9-2.6c2,0.3,2.1,1.8,1.8,3.5
		c-0.3,1.9-1,2.8-2.8,2.5S60.4,36.4,60.7,34.5z M63.9,34.9c0.1-0.6,0.3-1.6-0.5-1.7c-0.8-0.1-1,0.9-1.1,1.5c-0.2,1.3-0.2,1.8,0.5,2
		C63.5,36.7,63.6,36.2,63.9,34.9z"/>
</g>
<g>
	<path class="st1" d="M31.8,35l2,0.3l-3,3.4l1.6,5.1l-2-0.4L29,38.8l0,0l-0.8,4.4l-1.8-0.3l1.5-8.5l1.8,0.3L29,38.3l0,0L31.8,35z"/>
	<path class="st1" d="M33.7,39.7c0.4-2.2,0.8-4.4,3.7-3.9c2.9,0.5,2.6,2.7,2.2,4.9c-0.4,2.2-0.8,4.4-3.7,3.9
		C33,44.1,33.3,41.9,33.7,39.7z M37.8,40.4c0.4-2.2,0.4-3.1-0.6-3.3c-1-0.2-1.3,0.7-1.7,2.9s-0.4,3.1,0.6,3.3
		C37.1,43.5,37.4,42.6,37.8,40.4z"/>
	<path class="st1" d="M42,45.6l-1.8-0.3l1.5-8.5l3.3,0.6c1.2,0.2,1.9,1.1,1.6,2.6c-0.2,1.1-0.8,1.8-1.9,1.8l0,0
		c0.4,0.1,1.5,0.4,1.2,1.9c-0.1,0.5-0.3,2.1-0.2,2.5l-1.7-0.3c-0.1-0.6,0-1.1,0.1-1.7c0.2-1,0.4-1.9-0.9-2.1L42.6,42L42,45.6z
		 M42.8,40.7l0.8,0.1c0.7,0.1,1-0.5,1.1-1.1c0.1-0.8-0.1-1.2-0.7-1.3l-0.8-0.1L42.8,40.7z"/>
	<path class="st1" d="M53.4,38.8l-0.2,1.4l-2-0.3l-1.2,7.1l-1.8-0.3l1.2-7.1l-2-0.3l0.2-1.4L53.4,38.8z"/>
	<path class="st1" d="M52.7,47.4l1.5-8.5l1.8,0.3l-1.5,8.5L52.7,47.4z"/>
	<path class="st1" d="M56,48l1.5-8.5l2.4,0.4l1.2,6.3l0,0l1-5.9l1.7,0.3l-1.5,8.5L60,48.7l-1.2-6.6l0,0l-1.1,6.2L56,48z"/>
	<path class="st1" d="M68.7,44.2c0.2-0.8,0.1-1.5-0.8-1.7c-1.1-0.2-1.4,1.3-1.7,2.9c-0.5,2.7-0.3,3.2,0.7,3.4c0.3,0.1,0.6,0,0.9,0
		l0.3-1.9l-1-0.2l0.2-1.3l2.7,0.5l-0.8,4.3c-0.5,0-1.7,0-2.5-0.1c-3-0.5-3.1-1.8-2.5-5c0.4-2.1,0.9-4.3,3.8-3.8
		c1.7,0.3,2.7,1.5,2.2,3.2L68.7,44.2z"/>
	<path class="st1" d="M73.2,49.6L72.9,51l-1.4-0.2l0.2-1.4L73.2,49.6z M73.2,48.7L72,48.5l0.8-6.3l1.6,0.3L73.2,48.7z"/>
</g>
<g>
	<path class="st2" d="M36,58.9l1.1-6.4l2.1,0.4c0.9,0.2,1.1,0.5,1.3,0.9c0.2,0.4,0.1,0.8,0.1,0.9c-0.1,0.8-0.5,1.3-1.4,1.3l0,0
		c0.9,0.3,1.2,0.9,1,1.8c-0.3,1.6-1.5,1.6-2.2,1.5L36,58.9z M37,58.4l1.1,0.2c0.9,0.2,1.3-0.4,1.4-0.9c0.2-1-0.4-1.3-1.2-1.4
		l-0.9-0.2L37,58.4z M37.5,55.4l1.2,0.2c0.6,0.1,1-0.2,1.1-0.8c0.1-0.5-0.1-1-0.8-1.1l-1.1-0.2L37.5,55.4z"/>
	<path class="st2" d="M42,60l-0.7-0.1l0.8-4.5l0.7,0.1L42,60z M42.3,53.5l0.8,0.1L43,54.4l-0.8-0.1L42.3,53.5z"/>
	<path class="st2" d="M44,55.7l0.7,0.1l-0.9,5.1c-0.1,0.7-0.4,1-1.4,0.8l0.1-0.6c0.3,0.1,0.5,0.1,0.6-0.3L44,55.7z M44.3,53.8
		l0.8,0.1L45,54.7l-0.8-0.1L44.3,53.8z"/>
</g>
<g>
	<path class="st2" d="M48.2,59c-0.2,1.2,0.1,1.5,0.6,1.6c0.5,0.1,0.8-0.3,0.9-0.7l0.8,0.1c-0.2,1-0.9,1.3-1.8,1.2
		c-0.9-0.2-1.6-0.6-1.3-2.5c0.2-1.3,0.6-2.4,2.1-2.1c1.3,0.2,1.5,1,1.2,2.5l-0.1,0.4L48.2,59z M50,58.8c0.2-1.3-0.1-1.5-0.6-1.6
		c-0.5-0.1-0.9,0.1-1.1,1.3L50,58.8z"/>
	<path class="st2" d="M52.6,59.8c-0.2,1.2,0.1,1.6,0.6,1.6c0.5,0.1,0.8-0.3,0.9-0.7l0.8,0.1c-0.2,1-0.9,1.3-1.8,1.2
		c-0.9-0.2-1.6-0.6-1.3-2.5c0.2-1.3,0.6-2.4,2.1-2.1c1.3,0.2,1.5,1,1.2,2.5l-0.1,0.4L52.6,59.8z M54.5,59.5c0.2-1.3-0.1-1.5-0.6-1.6
		c-0.5-0.1-0.9,0.1-1.1,1.3L54.5,59.5z"/>
	<path class="st2" d="M58.4,62.9l0.5-3.1c0.1-0.5,0-0.9-0.6-1c-0.8-0.1-1,0.5-1.1,1.2l-0.5,2.6L56,62.4l0.6-3.5
		c0.1-0.3,0.1-0.6,0.1-0.9l0.8,0.1l-0.1,0.6l0,0c0.4-0.5,0.7-0.6,1.3-0.5c1,0.2,1.1,0.8,0.9,1.7L59.1,63L58.4,62.9z"/>
</g>
<g>
	<path class="st1" d="M17.8,61l-0.9,4.9c-0.2,0.9-0.6,1.2-1.4,1.1c-0.1,0-0.3-0.1-0.4-0.1l0.1-0.8c0.1,0,0.3,0,0.4-0.3l0.9-5
		L17.8,61z M18.1,59.1L18,60l-1.2-0.2l0.2-1L18.1,59.1z"/>
	<path class="st1" d="M21.6,65.4c0,0.3-0.1,0.6-0.1,0.8L20.4,66l0.1-0.6l0,0c-0.3,0.4-0.7,0.6-1.3,0.5c-0.9-0.2-1.1-0.9-0.9-1.6
		c0.3-1.5,1.4-1.3,2.6-1.1l0.1-0.3c0.1-0.4,0.1-0.7-0.4-0.7c-0.4-0.1-0.5,0.2-0.6,0.6l-1.2-0.2c0.1-0.5,0.3-0.9,0.6-1
		c0.3-0.2,0.7-0.2,1.2-0.1c1.6,0.3,1.7,1,1.5,1.8L21.6,65.4z M19.4,64.4c-0.1,0.3-0.1,0.7,0.3,0.8c0.7,0.1,0.8-0.9,0.9-1.4
		C20,63.8,19.6,63.6,19.4,64.4z"/>
	<path class="st1" d="M26.1,66.2c0,0.3-0.1,0.6-0.1,0.8l-1.2-0.2l0.1-0.6l0,0c-0.3,0.4-0.7,0.6-1.3,0.5c-0.9-0.2-1.1-0.9-0.9-1.6
		c0.3-1.5,1.4-1.3,2.6-1.1l0.1-0.3c0.1-0.4,0.1-0.7-0.4-0.7c-0.4-0.1-0.5,0.2-0.6,0.6l-1.2-0.2c0.1-0.5,0.3-0.9,0.7-1
		c0.3-0.2,0.7-0.2,1.2-0.1c1.6,0.3,1.7,1,1.5,1.8L26.1,66.2z M23.9,65.2c-0.1,0.3-0.1,0.7,0.3,0.8c0.7,0.1,0.8-0.9,0.9-1.4
		C24.5,64.5,24,64.4,23.9,65.2z"/>
	<path class="st1" d="M28.9,62.9l-0.1,0.6l0,0c0.3-0.5,0.8-0.5,1.3-0.5l-0.2,1.1c-1.1-0.3-1.2,0.4-1.3,0.8l-0.4,2.4l-1.2-0.2
		l0.8-4.5L28.9,62.9z"/>
	<path class="st1" d="M33.4,67.5c0,0.3-0.1,0.6-0.1,0.8l-1.2-0.2l0.1-0.6l0,0c-0.3,0.4-0.7,0.6-1.3,0.5c-0.9-0.2-1.1-0.9-0.9-1.6
		c0.3-1.5,1.4-1.3,2.6-1.1l0.1-0.3c0.1-0.4,0.1-0.7-0.4-0.7c-0.4-0.1-0.5,0.2-0.6,0.6l-1.2-0.2c0.1-0.5,0.3-0.9,0.7-1
		c0.3-0.2,0.7-0.2,1.2-0.1c1.6,0.3,1.7,1,1.5,1.8L33.4,67.5z M31.2,66.5c-0.1,0.3-0.1,0.7,0.3,0.8c0.7,0.1,0.8-0.9,0.9-1.4
		C31.8,65.8,31.4,65.7,31.2,66.5z"/>
	<path class="st1" d="M35.4,62.1l1.2,0.2l-0.4,2.3l0,0c0.3-0.3,0.7-0.4,1.1-0.3c1.3,0.2,1,1.6,0.8,2.5c-0.2,0.9-0.4,2.4-1.7,2.1
		c-0.5-0.1-0.8-0.3-0.9-0.8l0,0l-0.1,0.5l-1.2-0.2L35.4,62.1z M37,66.6c0.2-0.9,0.3-1.5-0.3-1.6c-0.5-0.1-0.6,0.5-0.8,1.4
		c-0.2,1.1-0.2,1.6,0.2,1.7C36.6,68.2,36.8,67.7,37,66.6z"/>
	<path class="st1" d="M39,66.9c0.2-1.2,0.6-2.2,2.2-1.9s1.6,1.4,1.4,2.6c-0.2,1.4-0.6,2.3-2.2,2.1S38.8,68.3,39,66.9z M41.4,67.3
		c0.2-0.9,0.2-1.4-0.3-1.5c-0.5-0.1-0.7,0.4-0.8,1.3c-0.2,1.4-0.2,1.7,0.3,1.8C41,68.9,41.2,68.7,41.4,67.3z"/>
	<path class="st1" d="M45.1,66.2L45.1,66.2c0.2-0.2,0.4-0.3,0.5-0.3c0.2-0.1,0.4-0.1,0.6,0c0.6,0.1,1,0.5,0.9,1.2l-0.6,3.6l-1.2-0.2
		l0.5-3.1c0.1-0.4,0.1-0.7-0.3-0.8c-0.4-0.1-0.5,0.2-0.6,0.6l-0.5,3.1L43.1,70l0.8-4.5l1.2,0.2L45.1,66.2z"/>
	<path class="st1" d="M49.5,67L49.5,67c0.2-0.2,0.4-0.3,0.5-0.3c0.2-0.1,0.4-0.1,0.6,0c0.6,0.1,1,0.5,0.9,1.2L51,71.4l-1.2-0.2
		l0.5-3.1c0.1-0.4,0.1-0.7-0.3-0.8c-0.4-0.1-0.5,0.2-0.6,0.6L48.8,71l-1.2-0.2l0.8-4.5l1.2,0.2L49.5,67z"/>
	<path class="st1" d="M53.5,69.8c-0.1,0.5-0.2,1.3,0.3,1.4c0.4,0.1,0.6-0.3,0.7-0.7l1.3,0.2c-0.1,0.5-0.3,0.9-0.7,1.1
		c-0.3,0.2-0.8,0.3-1.4,0.2c-1.6-0.3-1.6-1.3-1.4-2.7c0.2-1.2,0.6-2.2,2.2-1.9c1.7,0.3,1.7,1.4,1.4,2.8L53.5,69.8z M54.7,69.3
		c0.1-0.4,0.2-1-0.4-1.2c-0.6-0.1-0.7,0.6-0.8,1L54.7,69.3z"/>
	<path class="st1" d="M58.2,68.6L58.2,68.6c0.3-0.4,0.7-0.4,1.2-0.4c0.4,0.1,0.8,0.4,0.9,0.7c0.4-0.3,0.7-0.5,1.3-0.4
		c0.6,0.1,1,0.5,0.9,1.2l-0.6,3.6l-1.2-0.2l0.5-3.1c0.1-0.4,0.1-0.7-0.3-0.8c-0.4-0.1-0.5,0.2-0.6,0.6l-0.5,3.1l-1.2-0.2l0.5-3.1
		c0.1-0.4,0.1-0.7-0.3-0.8c-0.4-0.1-0.5,0.2-0.6,0.6l-0.5,3.1l-1.2-0.2l0.8-4.5l1.2,0.2L58.2,68.6z"/>
	<path class="st1" d="M64.2,71.7c-0.1,0.5-0.2,1.3,0.3,1.4c0.4,0.1,0.6-0.3,0.7-0.7l1.3,0.2c-0.1,0.5-0.3,0.9-0.7,1.1
		c-0.3,0.2-0.8,0.3-1.4,0.2c-1.6-0.3-1.6-1.3-1.4-2.7c0.2-1.2,0.6-2.2,2.2-1.9c1.7,0.3,1.7,1.4,1.4,2.8L64.2,71.7z M65.5,71.2
		c0.1-0.4,0.2-1-0.4-1.2c-0.6-0.1-0.7,0.6-0.7,1L65.5,71.2z"/>
	<path class="st1" d="M69.1,70.5L69.1,70.5c0.2-0.2,0.4-0.3,0.5-0.3c0.2-0.1,0.4-0.1,0.6,0c0.6,0.1,1,0.5,0.9,1.2l-0.6,3.6l-1.2-0.2
		l0.5-3.1c0.1-0.4,0.1-0.7-0.3-0.8c-0.4-0.1-0.5,0.2-0.6,0.6l-0.5,3.1l-1.2-0.2l0.8-4.5l1.2,0.2L69.1,70.5z"/>
	<path class="st1" d="M71.8,70.5l0.5,0.1l0.1-0.7l1.3-0.3l-0.2,1.3l0.6,0.1l-0.1,0.8l-0.6-0.1L73,74c-0.1,0.3-0.1,0.6,0.3,0.6
		c0.1,0,0.2,0,0.2,0l-0.1,0.8c-0.2,0-0.4,0-0.7-0.1c-1.1-0.2-1.1-0.9-1-1.2l0.5-2.7l-0.5-0.1L71.8,70.5z"/>
	<path class="st1" d="M75.7,74.7l-0.2,1.1l-1.1-0.2l0.2-1.1L75.7,74.7z M75.7,74l-0.8-0.1l0.6-4.7l1.2,0.2L75.7,74z"/>
</g>
</svg>
