<svg width="174" height="174" viewBox="0 0 174 174" fill="none" xmlns="http://www.w3.org/2000/svg">
<circle cx="87" cy="87" r="75" transform="rotate(10 87 87)" fill="#E20613"/>
<path d="M29.2908 104.796L27.7429 113.575C27.581 114.493 27.2117 115.163 26.6348 115.585C26.0571 116.012 25.3092 116.144 24.3911 115.982C24.0064 115.915 23.6473 115.806 23.3139 115.658L23.6246 113.896C23.8832 113.989 24.1125 114.053 24.3125 114.088C24.9844 114.207 25.3833 113.91 25.509 113.197L27.0596 104.403L29.2908 104.796ZM27.2625 102.217C27.3213 101.884 27.48 101.629 27.7385 101.452C28.0022 101.277 28.3263 101.223 28.711 101.291C29.0957 101.358 29.3794 101.52 29.5619 101.774C29.7496 102.029 29.8141 102.323 29.7553 102.657C29.6956 102.995 29.5314 103.252 29.2626 103.427C28.9989 103.602 28.6798 103.657 28.3054 103.591C27.931 103.525 27.6473 103.364 27.4545 103.108C27.2668 102.853 27.2028 102.556 27.2625 102.217ZM34.3858 114.278C34.3184 114.06 34.2879 113.798 34.2942 113.492C33.6499 113.998 32.8968 114.174 32.0351 114.022C31.2196 113.878 30.5841 113.523 30.1287 112.956C29.6785 112.39 29.5167 111.748 29.6433 111.03C29.7989 110.148 30.244 109.528 30.9786 109.171C31.7183 108.815 32.7067 108.744 33.9438 108.956L34.967 109.137L35.0512 108.66C35.119 108.275 35.0732 107.95 34.9139 107.684C34.7597 107.418 34.4697 107.248 34.044 107.173C33.6696 107.107 33.3588 107.145 33.1117 107.287C32.8698 107.429 32.7212 107.657 32.666 107.97L30.4425 107.577C30.5275 107.095 30.755 106.675 31.1248 106.317C31.4947 105.96 31.9718 105.713 32.5562 105.578C33.1415 105.438 33.7727 105.428 34.4497 105.547C35.4756 105.728 36.2429 106.13 36.7516 106.754C37.2664 107.374 37.4415 108.15 37.2769 109.084L36.6407 112.692C36.5065 113.483 36.5114 114.1 36.6554 114.543L36.6324 114.674L34.3858 114.278ZM32.8196 112.407C33.1479 112.465 33.4632 112.447 33.7655 112.352C34.0687 112.252 34.3087 112.091 34.4854 111.868L34.7378 110.437L33.9068 110.291C32.7938 110.094 32.1336 110.375 31.9261 111.131L31.8953 111.261C31.8465 111.538 31.9037 111.783 32.0669 111.997C32.2302 112.211 32.4811 112.348 32.8196 112.407ZM42.8336 115.768C42.7663 115.549 42.7357 115.288 42.742 114.982C42.0977 115.487 41.3446 115.664 40.4829 115.512C39.6674 115.368 39.0319 115.013 38.5765 114.446C38.1263 113.88 37.9645 113.238 38.0911 112.52C38.2467 111.638 38.6918 111.018 39.4264 110.661C40.1661 110.305 41.1545 110.233 42.3916 110.446L43.4148 110.626L43.499 110.149C43.5668 109.765 43.521 109.439 43.3617 109.173C43.2075 108.908 42.9175 108.738 42.4918 108.663C42.1174 108.597 41.8066 108.635 41.5595 108.776C41.3176 108.919 41.169 109.146 41.1138 109.459L38.8903 109.067C38.9753 108.585 39.2028 108.165 39.5726 107.807C39.9425 107.449 40.4196 107.203 41.004 107.068C41.5893 106.928 42.2205 106.917 42.8975 107.037C43.9234 107.218 44.6907 107.62 45.1994 108.244C45.7142 108.863 45.8893 109.64 45.7247 110.574L45.0885 114.182C44.9543 114.973 44.9592 115.59 45.1032 116.033L45.0802 116.164L42.8336 115.768ZM41.2674 113.897C41.5957 113.955 41.911 113.936 42.2133 113.842C42.5165 113.742 42.7565 113.58 42.9332 113.358L43.1856 111.927L42.3546 111.78C41.2416 111.584 40.5814 111.864 40.3739 112.621L40.3431 112.75C40.2943 113.027 40.3515 113.273 40.5148 113.487C40.678 113.7 40.9289 113.837 41.2674 113.897ZM52.2354 110.992C51.94 110.897 51.6769 110.83 51.4461 110.789C50.6049 110.641 50.0033 110.828 49.6414 111.351L48.6809 116.799L46.4574 116.407L47.9252 108.082L50.0256 108.452L49.9122 109.456C50.4932 108.77 51.1786 108.497 51.9685 108.636C52.2147 108.68 52.4397 108.754 52.6433 108.858L52.2354 110.992ZM56.8055 118.231C56.7382 118.013 56.7077 117.751 56.714 117.446C56.0696 117.951 55.3166 118.127 54.4549 117.975C53.6393 117.832 53.0039 117.476 52.5485 116.909C52.0983 116.344 51.9365 115.701 52.0631 114.983C52.2186 114.101 52.6637 113.482 53.3983 113.125C54.1381 112.768 55.1265 112.697 56.3635 112.91L57.3868 113.09L57.4709 112.613C57.5388 112.228 57.493 111.903 57.3337 111.637C57.1794 111.372 56.8895 111.202 56.4638 111.126C56.0893 111.06 55.7786 111.098 55.5315 111.24C55.2895 111.382 55.141 111.61 55.0858 111.923L52.8623 111.531C52.9473 111.049 53.1747 110.628 53.5446 110.271C53.9144 109.913 54.3916 109.666 54.9759 109.531C55.5612 109.391 56.1924 109.381 56.8695 109.5C57.8953 109.681 58.6626 110.084 59.1714 110.707C59.6862 111.327 59.8613 112.104 59.6967 113.037L59.0604 116.646C58.9263 117.436 58.9312 118.053 59.0752 118.497L59.0521 118.627L56.8055 118.231ZM55.2394 116.361C55.5677 116.418 55.8829 116.4 56.1852 116.305C56.4884 116.205 56.7284 116.044 56.9052 115.821L57.1575 114.39L56.3266 114.244C55.2136 114.048 54.5533 114.328 54.3458 115.084L54.3151 115.214C54.2662 115.491 54.3235 115.736 54.4867 115.95C54.65 116.164 54.9009 116.301 55.2394 116.361ZM68.6511 116.108C68.416 117.441 67.9477 118.432 67.2463 119.081C66.5459 119.724 65.6853 119.956 64.6645 119.776C63.7618 119.616 63.1022 119.143 62.6857 118.356L62.4297 119.223L60.4293 118.87L62.5131 107.053L64.7366 107.445L63.9891 111.684C64.6078 111.174 65.3352 110.993 66.1713 111.141C67.1869 111.32 67.9159 111.834 68.3583 112.684C68.8068 113.53 68.9116 114.63 68.6728 115.984L68.6511 116.108ZM66.4561 115.554C66.6044 114.713 66.5792 114.076 66.3803 113.645C66.1823 113.208 65.8191 112.943 65.2908 112.85C64.583 112.725 64.0446 112.929 63.6757 113.461L63.0964 116.746C63.2652 117.379 63.706 117.758 64.419 117.884C65.1371 118.011 65.6714 117.74 66.0219 117.072C66.1893 116.752 66.334 116.246 66.4561 115.554ZM69.7092 116.135C69.8549 115.31 70.1436 114.602 70.5756 114.011C71.0076 113.421 71.5523 113.002 72.2097 112.753C72.8722 112.505 73.5984 112.45 74.3883 112.589C75.5116 112.787 76.3665 113.293 76.9532 114.105C77.545 114.918 77.7779 115.921 77.6519 117.115L77.5669 117.688C77.3417 118.965 76.8043 119.928 75.9548 120.576C75.1062 121.22 74.0818 121.436 72.8815 121.225C71.6813 121.013 70.79 120.459 70.2075 119.563C69.6302 118.668 69.4583 117.559 69.6916 116.235L69.7092 116.135ZM71.9043 116.689C71.765 117.479 71.807 118.11 72.0303 118.583C72.2546 119.051 72.6437 119.334 73.1976 119.432C73.7362 119.527 74.193 119.396 74.5679 119.039C74.9438 118.677 75.2118 118.042 75.3719 117.134C75.5085 116.359 75.463 115.733 75.2354 115.254C75.0079 114.774 74.6197 114.487 74.0708 114.39C73.5271 114.294 73.069 114.433 72.6964 114.806C72.3248 115.174 72.0607 115.802 71.9043 116.689ZM81.7318 114.043L81.6315 115.017C82.3576 114.378 83.2208 114.147 84.221 114.323C85.1032 114.479 85.7141 114.853 86.0536 115.448C86.3931 116.042 86.4771 116.855 86.3055 117.888L85.3573 123.266L83.1337 122.874L84.0725 117.55C84.1557 117.078 84.1133 116.718 83.9452 116.472C83.778 116.22 83.4559 116.053 82.9789 115.968C82.3531 115.858 81.8368 116.042 81.4299 116.52L80.3947 122.391L78.1712 121.999L79.6391 113.674L81.7318 114.043ZM90.5643 115.6L90.464 116.574C91.1901 115.935 92.0533 115.704 93.0535 115.881C93.9357 116.036 94.5466 116.411 94.8861 117.005C95.2256 117.599 95.3096 118.412 95.138 119.445L94.1897 124.823L91.9662 124.431L92.905 119.107C92.9882 118.635 92.9458 118.276 92.7777 118.029C92.6105 117.778 92.2884 117.61 91.8114 117.526C91.1856 117.415 90.6693 117.599 90.2623 118.078L89.2272 123.948L87.0037 123.556L88.4716 115.231L90.5643 115.6ZM99.6868 125.951C98.466 125.736 97.537 125.186 96.8996 124.301C96.2674 123.418 96.0612 122.353 96.281 121.106L96.319 120.891C96.4664 120.055 96.7596 119.337 97.1985 118.737C97.6383 118.133 98.1843 117.705 98.8366 117.456C99.4949 117.201 100.204 117.141 100.963 117.275C102.101 117.476 102.933 117.993 103.458 118.826C103.988 119.66 104.137 120.736 103.904 122.054L103.744 122.962L98.443 122.027C98.419 122.583 98.5575 123.057 98.8587 123.449C99.165 123.841 99.5951 124.086 100.149 124.184C101.006 124.335 101.73 124.143 102.321 123.607L103.198 125.023C102.781 125.436 102.265 125.726 101.649 125.892C101.033 126.054 100.379 126.073 99.6868 125.951ZM100.638 119.074C100.196 118.996 99.8112 119.082 99.4817 119.33C99.1574 119.58 98.908 119.975 98.7334 120.515L101.826 121.061L101.857 120.884C101.934 120.39 101.868 119.987 101.658 119.675C101.45 119.358 101.109 119.157 100.638 119.074ZM107.96 118.668L107.865 119.611C108.582 118.992 109.444 118.771 110.449 118.948C111.521 119.137 112.183 119.69 112.433 120.607C113.167 119.864 114.076 119.587 115.158 119.778C116.061 119.937 116.686 120.32 117.034 120.926C117.383 121.527 117.464 122.356 117.278 123.412L116.34 128.729L114.109 128.335L115.045 123.027C115.128 122.555 115.097 122.195 114.95 121.947C114.804 121.694 114.498 121.526 114.031 121.444C113.364 121.326 112.847 121.563 112.478 122.154L111.478 127.871L109.254 127.479L110.189 122.178C110.274 121.696 110.241 121.331 110.089 121.082C109.937 120.833 109.633 120.668 109.176 120.588C108.545 120.476 108.043 120.658 107.668 121.131L106.631 127.017L104.407 126.625L105.875 118.3L107.96 118.668ZM121.86 129.861C120.64 129.646 119.711 129.096 119.073 128.211C118.441 127.328 118.235 126.263 118.455 125.016L118.493 124.801C118.64 123.965 118.933 123.247 119.372 122.647C119.812 122.043 120.358 121.615 121.01 121.365C121.668 121.111 122.377 121.051 123.136 121.185C124.275 121.386 125.107 121.903 125.631 122.736C126.161 123.569 126.31 124.645 126.078 125.964L125.918 126.872L120.617 125.937C120.593 126.493 120.731 126.967 121.032 127.359C121.339 127.751 121.769 127.996 122.323 128.094C123.179 128.245 123.903 128.053 124.495 127.517L125.372 128.933C124.955 129.346 124.439 129.636 123.822 129.802C123.207 129.963 122.553 129.983 121.86 129.861ZM122.811 122.984C122.37 122.906 121.985 122.992 121.655 123.24C121.331 123.49 121.082 123.885 120.907 124.425L124 124.971L124.031 124.794C124.108 124.299 124.041 123.896 123.832 123.584C123.623 123.267 123.283 123.067 122.811 122.984ZM130.095 122.571L129.995 123.545C130.721 122.906 131.584 122.675 132.584 122.851C133.466 123.006 134.077 123.381 134.417 123.975C134.756 124.569 134.84 125.383 134.669 126.415L133.721 131.793L131.497 131.401L132.436 126.077C132.519 125.605 132.477 125.246 132.309 125C132.141 124.748 131.819 124.58 131.342 124.496C130.716 124.386 130.2 124.57 129.793 125.048L128.758 130.918L126.535 130.526L128.002 122.202L130.095 122.571ZM139.904 122.19L139.543 124.237L140.966 124.488L140.679 126.119L139.256 125.868L138.523 130.022C138.469 130.33 138.489 130.561 138.583 130.715C138.678 130.869 138.892 130.976 139.225 131.035C139.471 131.078 139.692 131.099 139.888 131.096L139.591 132.781C139.132 132.838 138.671 132.825 138.21 132.744C136.65 132.469 135.994 131.541 136.241 129.961L137.032 125.476L135.816 125.261L136.104 123.63L137.32 123.845L137.68 121.798L139.904 122.19Z" fill="white"/>
<path d="M83.4412 50.8326L71.9236 48.8017L72.3265 46.5166L78.7837 41.6816C79.6738 40.9977 80.3494 40.383 80.8105 39.8376C81.2793 39.2936 81.5618 38.7484 81.6581 38.2021C81.7897 37.4558 81.7043 36.8379 81.4019 36.3482C81.1009 35.8509 80.6003 35.5405 79.9002 35.4171C79.1462 35.2841 78.5038 35.4406 77.973 35.8864C77.4513 36.3259 77.1158 36.9688 76.9665 37.8152L73.6197 37.225C73.8002 36.2018 74.2074 35.3097 74.8413 34.5488C75.4829 33.7893 76.292 33.2498 77.2686 32.9301C78.2466 32.6028 79.3011 32.5388 80.432 32.7383C82.1632 33.0435 83.4325 33.6957 84.24 34.6948C85.0552 35.6954 85.3292 36.9535 85.0619 38.4691C84.9154 39.3001 84.5507 40.1084 83.9679 40.8941C83.3852 41.6799 82.4695 42.5537 81.221 43.5155L76.6908 46.8697L83.9153 48.1436L83.4412 50.8326ZM98.0304 46.2415C97.6207 48.565 96.8264 50.2575 95.6476 51.3189C94.4688 52.3804 92.9524 52.7476 91.0981 52.4207C89.267 52.0978 87.9732 51.2469 87.2168 49.8681C86.4604 48.4892 86.2694 46.6706 86.6438 44.4122L87.1891 41.3193C87.6029 38.9727 88.4017 37.2771 89.5855 36.2324C90.7769 35.189 92.2882 34.8288 94.1193 35.1517C95.9505 35.4746 97.2442 36.3254 98.0007 37.7043C98.7585 39.0755 98.9501 40.8902 98.5757 43.1486L98.0304 46.2415ZM95.2934 42.2604C95.5389 40.8679 95.525 39.8222 95.2515 39.1235C94.9871 38.4184 94.451 37.9947 93.6432 37.8522C92.8584 37.7138 92.2239 37.9153 91.7397 38.4567C91.2646 38.9917 90.9022 39.8996 90.6526 41.1804L89.9322 45.2658C89.6908 46.6353 89.6957 47.6873 89.9469 48.4217C90.2073 49.1499 90.749 49.5865 91.5723 49.7317C92.3878 49.8755 93.0327 49.66 93.5069 49.0852C93.9811 48.5103 94.3419 47.5665 94.5893 46.2535L95.2934 42.2604ZM101.414 40.0078C101.596 38.9769 102.078 38.2011 102.86 37.6805C103.643 37.1523 104.577 36.9838 105.662 37.1751C106.762 37.3691 107.591 37.8444 108.148 38.601C108.706 39.3499 108.889 40.2668 108.698 41.3516L108.551 42.1826C108.368 43.2212 107.886 43.997 107.106 44.5099C106.325 45.0227 105.392 45.1835 104.308 44.9922C103.215 44.7996 102.386 44.3281 101.82 43.5779C101.263 42.8212 101.08 41.9044 101.27 40.8272L101.414 40.0078ZM103.473 41.2872C103.392 41.7488 103.457 42.145 103.668 42.4758C103.889 42.8003 104.214 43.0005 104.645 43.0765C105.076 43.1524 105.444 43.0705 105.748 42.8306C106.052 42.5907 106.246 42.2322 106.33 41.7552L106.481 40.9012C106.562 40.4396 106.501 40.044 106.297 39.7146C106.093 39.3851 105.768 39.1811 105.322 39.1024C104.899 39.0278 104.532 39.1097 104.22 39.3483C103.909 39.5791 103.71 39.9446 103.622 40.4447L103.473 41.2872ZM107.78 50.876C107.963 49.8373 108.449 49.0623 109.237 48.5507C110.027 48.0315 110.96 47.8669 112.037 48.0568C113.13 48.2495 113.955 48.7203 114.513 49.4692C115.08 50.2118 115.267 51.1332 115.073 52.2334L114.927 53.0643C114.745 54.0953 114.267 54.8717 113.492 55.3936C112.72 55.9079 111.783 56.068 110.683 55.874C109.575 55.6786 108.742 55.2026 108.186 54.446C107.629 53.6894 107.444 52.7841 107.629 51.73L107.78 50.876ZM109.837 52.1669C109.762 52.59 109.837 52.9761 110.061 53.325C110.285 53.6739 110.605 53.8849 111.021 53.9582C111.959 54.1237 112.52 53.6871 112.703 52.6485L112.858 51.7714C112.939 51.3097 112.874 50.9174 112.661 50.5943C112.449 50.2635 112.128 50.0601 111.697 49.9841C111.267 49.9082 110.895 49.9894 110.584 50.228C110.273 50.4588 110.075 50.8166 109.99 51.3013L109.837 52.1669ZM103.559 53.0829L102.087 51.9188L112.608 40.2323L114.08 41.3964L103.559 53.0829ZM46.2647 65.76L44.1225 67.3814L43.276 72.1823L39.8138 71.5718L42.7766 54.7685L46.2389 55.379L44.8958 62.9959L46.7875 61.1756L52.0438 56.4026L56.3024 57.1535L49.0192 63.5683L53.5126 73.9873L49.3926 73.2608L46.2647 65.76ZM69.6644 68.5651C69.3727 70.2193 68.8246 71.618 68.0201 72.7613C67.2156 73.9046 66.2074 74.7184 64.9955 75.2029C63.7913 75.6886 62.4852 75.8074 61.0772 75.5591C59.6847 75.3136 58.5011 74.7598 57.5266 73.8978C56.5521 73.0358 55.874 71.9325 55.4923 70.588C55.112 69.2358 55.0604 67.7512 55.3376 66.1341L55.4841 65.3032C55.7758 63.649 56.3284 62.2471 57.142 61.0975C57.9646 59.9415 58.9773 59.1245 60.1802 58.6464C61.3921 58.162 62.6981 58.0432 64.0984 58.2901C65.4987 58.537 66.6816 59.0947 67.647 59.963C68.6215 60.825 69.2937 61.9391 69.6636 63.3054C70.0426 64.6653 70.087 66.1685 69.7966 67.815L69.6644 68.5651ZM66.2903 67.1848C66.601 65.4229 66.5216 64.0286 66.0521 63.0018C65.5827 61.975 64.7632 61.3584 63.5938 61.1522C62.432 60.9474 61.4556 61.2433 60.6646 62.0399C59.875 62.8288 59.3224 64.0959 59.0067 65.841L58.8623 66.6604C58.5597 68.3761 58.6405 69.7628 59.1045 70.8204C59.5685 71.8779 60.393 72.5112 61.5778 72.7201C62.7396 72.925 63.7121 72.6284 64.4954 71.8304C65.28 71.0247 65.8302 69.7493 66.1458 68.0042L66.2903 67.1848ZM78.071 71.9751L75.3128 71.4888L74.2282 77.64L70.766 77.0295L73.7288 60.2262L79.9724 61.3271C81.9574 61.6771 83.4104 62.3895 84.3316 63.4642C85.2527 64.5389 85.5708 65.8841 85.2859 67.4998C85.0838 68.6462 84.6648 69.56 84.0291 70.2412C83.4023 70.9161 82.545 71.3916 81.4571 71.6678L83.8816 79.1756L83.8531 79.3371L80.137 78.6819L78.071 71.9751ZM75.8073 68.6844L78.6002 69.1769C79.4696 69.3302 80.1814 69.2296 80.7358 68.8752C81.2915 68.513 81.6378 67.9434 81.7748 67.1663C81.9146 66.3739 81.7975 65.7107 81.4236 65.1767C81.0574 64.6441 80.4088 64.2957 79.4779 64.1315L76.6966 63.6411L75.8073 68.6844ZM100.401 67.8209L95.254 66.9133L92.7857 80.9122L89.3234 80.3017L91.7918 66.3028L86.7139 65.4074L87.2084 62.603L100.896 65.0165L100.401 67.8209ZM103.599 82.8189L100.137 82.2084L103.1 65.4052L106.562 66.0156L103.599 82.8189ZM120.483 85.796L117.021 85.1856L112.231 72.9411L110.281 83.9971L106.819 83.3867L109.782 66.5834L113.244 67.1939L118.042 79.4634L119.996 68.3843L123.446 68.9928L120.483 85.796ZM137.176 86.5499C136.422 87.1864 135.438 87.6119 134.226 87.8266C133.016 88.0336 131.718 88.015 130.333 87.7708C128.879 87.5144 127.657 86.9737 126.668 86.1489C125.688 85.3176 125.005 84.2451 124.618 82.9314C124.238 81.619 124.185 80.1459 124.457 78.5121L124.658 77.3696C124.954 75.6923 125.491 74.2916 126.268 73.1673C127.055 72.0367 128.036 71.2418 129.211 70.7828C130.396 70.3174 131.704 70.2108 133.135 70.4631C135.128 70.8145 136.602 71.5662 137.557 72.7183C138.513 73.8628 138.935 75.3611 138.823 77.2135L135.453 76.6193C135.468 75.6304 135.25 74.8661 134.798 74.3262C134.354 73.7878 133.67 73.4371 132.746 73.2743C131.569 73.0668 130.595 73.3511 129.823 74.1274C129.052 74.9036 128.508 76.1643 128.193 77.9095L128.003 78.9827C127.693 80.7446 127.793 82.1347 128.303 83.1529C128.814 84.1711 129.716 84.7941 131.008 85.022C132.308 85.2513 133.284 85.1378 133.936 84.6815L134.447 81.7848L131.296 81.2293L131.746 78.6788L138.359 79.8448L137.176 86.5499Z" fill="white"/>
<path d="M61.9821 99.8509L63.9574 88.6487L67.6196 89.2945C68.8353 89.5088 69.7039 89.9212 70.2257 90.5314C70.7526 91.1426 70.9292 91.9406 70.7555 92.9254C70.6633 93.4486 70.4327 93.8866 70.0637 94.2393C69.6957 94.587 69.2358 94.8258 68.6839 94.9559C69.2594 95.2319 69.6794 95.6392 69.9441 96.1777C70.2148 96.712 70.2922 97.3074 70.1765 97.9639C69.9992 98.9693 69.5342 99.7017 68.7815 100.161C68.0288 100.621 67.0575 100.746 65.8675 100.536L61.9821 99.8509ZM64.3832 94.8719L63.6723 98.9035L66.1113 99.3335C66.7986 99.4547 67.3709 99.3732 67.8283 99.0889C68.2917 98.8004 68.5785 98.3433 68.6889 97.7175C68.9267 96.3685 68.3122 95.5647 66.8452 95.306L64.3832 94.8719ZM64.5921 93.6871L66.8233 94.0805C67.4696 94.1944 68.0136 94.1238 68.4553 93.8685C68.9021 93.6141 69.1743 93.2099 69.272 92.6559C69.3805 92.0404 69.2797 91.5625 68.9695 91.2222C68.6602 90.8768 68.1388 90.6394 67.4053 90.5101L65.2202 90.1248L64.5921 93.6871ZM73.1228 101.815L71.6994 101.564L73.1673 93.2396L74.5906 93.4906L73.1228 101.815ZM73.4412 91.0112C73.4819 90.7804 73.5855 90.5977 73.7521 90.4631C73.9237 90.3294 74.148 90.287 74.425 90.3358C74.702 90.3846 74.8983 90.5012 75.0138 90.6856C75.1294 90.8699 75.1669 91.0775 75.1262 91.3083C75.0855 91.5391 74.9797 91.7188 74.809 91.8473C74.6382 91.9759 74.4144 92.0157 74.1374 91.9669C73.8604 91.9181 73.6637 91.804 73.5472 91.6248C73.4359 91.4465 73.4005 91.242 73.4412 91.0112ZM78.3452 94.1526L76.7078 103.439C76.4256 105.039 75.5587 105.712 74.1072 105.456C73.7943 105.4 73.5126 105.303 73.2622 105.164L73.463 104.025C73.6199 104.095 73.8317 104.154 74.0984 104.201C74.4164 104.257 74.6728 104.212 74.8677 104.067C75.0668 103.927 75.2039 103.645 75.279 103.219L76.9219 93.9017L78.3452 94.1526ZM77.165 91.6678C77.2048 91.4421 77.308 91.262 77.4745 91.1274C77.6471 90.9886 77.8693 90.9431 78.1411 90.9911C78.4181 91.0399 78.6144 91.1565 78.73 91.3408C78.8455 91.5251 78.883 91.7327 78.8423 91.9635C78.8016 92.1943 78.6959 92.374 78.5251 92.5026C78.3544 92.6311 78.1305 92.671 77.8535 92.6221C77.5765 92.5733 77.3824 92.4597 77.271 92.2814C77.1597 92.1031 77.1243 91.8986 77.165 91.6678ZM86.5136 104.335C85.3852 104.136 84.5322 103.605 83.9546 102.742C83.3779 101.873 83.199 100.818 83.4179 99.5769L83.464 99.3153C83.6096 98.4895 83.8958 97.781 84.3227 97.1899C84.7555 96.5946 85.2862 96.1645 85.9146 95.8999C86.5491 95.6309 87.1971 95.5548 87.8588 95.6715C88.9411 95.8623 89.7194 96.3671 90.1938 97.1859C90.6682 98.0047 90.7883 99.0783 90.5541 100.407L90.4496 100.999L84.81 100.005C84.6858 100.829 84.8072 101.535 85.1742 102.124C85.5472 102.708 86.0876 103.062 86.7954 103.187C87.2981 103.276 87.7419 103.248 88.1269 103.104C88.5118 102.961 88.865 102.743 89.1862 102.45L89.9362 103.281C89.0497 104.23 87.9088 104.581 86.5136 104.335ZM87.6526 96.841C87.0781 96.7397 86.5589 96.8649 86.0949 97.2168C85.6319 97.5635 85.2877 98.1058 85.0624 98.8435L89.2324 99.5788L89.2514 99.471C89.3379 98.7406 89.2416 98.1471 88.9625 97.6907C88.6842 97.2291 88.2476 96.9459 87.6526 96.841ZM94.8691 105.808C93.7407 105.609 92.8877 105.078 92.3101 104.215C91.7334 103.346 91.5545 102.291 91.7734 101.05L91.8195 100.789C91.9651 99.9628 92.2513 99.2543 92.6782 98.6632C93.111 98.0679 93.6417 97.6378 94.2701 97.3732C94.9046 97.1042 95.5526 97.0281 96.2143 97.1448C97.2966 97.3356 98.0749 97.8404 98.5493 98.6592C99.0237 99.478 99.1438 100.552 98.9095 101.88L98.8051 102.472L93.1655 101.478C93.0413 102.302 93.1627 103.009 93.5297 103.597C93.9027 104.181 94.4431 104.535 95.1509 104.66C95.6536 104.749 96.0974 104.721 96.4823 104.578C96.8673 104.434 97.2204 104.216 97.5417 103.924L98.2917 104.754C97.4051 105.703 96.2643 106.054 94.8691 105.808ZM96.0081 98.3142C95.4336 98.213 94.9144 98.3382 94.4504 98.6901C93.9873 99.0368 93.6432 99.579 93.4179 100.317L97.5879 101.052L97.6069 100.944C97.6934 100.214 97.5971 99.6204 97.3179 99.164C97.0397 98.7024 96.6031 98.4192 96.0081 98.3142ZM102.611 98.4314L102.473 99.4859C103.25 98.7979 104.152 98.5444 105.178 98.7253C106.937 99.0355 107.649 100.184 107.315 102.172L106.345 107.673L104.921 107.422L105.893 101.913C105.993 101.312 105.933 100.844 105.712 100.509C105.496 100.175 105.103 99.9576 104.534 99.8572C104.072 99.7758 103.645 99.8275 103.253 100.012C102.861 100.197 102.532 100.472 102.267 100.838L101.221 106.77L99.7972 106.519L101.265 98.194L102.611 98.4314Z" fill="#F5AE94"/>
</svg>
