<?xml version="1.0" encoding="utf-8"?>
<!-- Generator: Adobe Illustrator 18.1.1, SVG Export Plug-In . SVG Version: 6.00 Build 0)  -->
<svg version="1.1" id="Layer_1" xmlns="http://www.w3.org/2000/svg" xmlns:xlink="http://www.w3.org/1999/xlink" x="0px" y="0px"
	 viewBox="0 0 88 80" enable-background="new 0 0 88 80" xml:space="preserve">
<path fill="#951B81" d="M34.9,13.1C44.5,6.9,51.7,3,67.4,6.6c8.8,2,16.5,6.9,20.6,11.6C84.5,12.6,77,7.2,66.4,4.7
	c-14.9-3.6-26.7,0.6-34.3,8.2"/>
<path fill="#662383" d="M40.6,45.8c-3.5,4.6-9.5,6-13.5,3c-4-3-4.4-9.2-0.9-13.8c3.5-4.6,9.5-6,13.5-3C43.7,35,44.1,41.2,40.6,45.8"
	/>
<path fill="#662383" d="M27.1,55.2c-7-1.5-9.8-7.8-8.8-16.6l0.6-3.2c3.4-12.1,13.4-22.7,28.2-29.1c13.2-5.7,27.5-2.6,37.8,3.4
	C74.4,2,59.1-0.5,44,4.2C35.7,6.8,28,11.8,22,18.1l0-0.1c-0.1,0.2-0.2,0.3-0.3,0.5c-3.8,3.9-6.9,8.4-9.3,13c-2.6,4.4-4.4,9.4-8,21.8
	C2.1,63.8-0.9,76.7,6,79.6c5.4,2.3,8.9-6.9,20.5-13.6c16.8-6.9,31.1-17.7,41.3-30.7c-7.3,6.9-15,12.5-22.1,16
	C38.7,54.8,32.1,56.4,27.1,55.2"/>
<path fill="#951B81" d="M46.9,13.3c3.4-2.1,6-3.6,12.8-3.2c3.8,0.2,7.4,1.3,9.4,2.4c-1.9-1.4-5.4-2.6-10-2.9
	c-6.4-0.4-10.9,1.3-13.3,3.7L46.9,13.3z"/>
</svg>
