<svg width="174" height="174" viewBox="0 0 174 174" fill="none" xmlns="http://www.w3.org/2000/svg">
<circle cx="87" cy="87" r="75" transform="rotate(10 87 87)" fill="#76B72A"/>
<path d="M33.4378 76.1038C33.2433 77.2066 32.8779 78.1391 32.3416 78.9013C31.8052 79.6634 31.1331 80.206 30.3252 80.529C29.5224 80.8528 28.6516 80.932 27.713 80.7665C26.7846 80.6028 25.9956 80.2336 25.3459 79.6589C24.6963 79.0843 24.2442 78.3487 23.9897 77.4524C23.7362 76.5509 23.7018 75.5612 23.8866 74.4831L23.9842 73.9292C24.1787 72.8264 24.5471 71.8918 25.0895 71.1254C25.6379 70.3547 26.313 69.81 27.1149 69.4913C27.9229 69.1684 28.7936 69.0892 29.7271 69.2538C30.6606 69.4184 31.4492 69.7902 32.0928 70.3691C32.7425 70.9437 33.1906 71.6865 33.4373 72.5973C33.6899 73.5039 33.7195 74.506 33.5259 75.6037L33.4378 76.1038ZM31.1884 75.1836C31.3955 74.009 31.3426 73.0794 31.0296 72.3949C30.7166 71.7104 30.1703 71.2994 29.3907 71.1619C28.6162 71.0253 27.9652 71.2226 27.4379 71.7537C26.9115 72.2796 26.5431 73.1243 26.3327 74.2877L26.2363 74.834C26.0347 75.9778 26.0885 76.9022 26.3978 77.6073C26.7072 78.3123 27.2568 78.7345 28.0467 78.8738C28.8212 79.0104 29.4696 78.8126 29.9918 78.2807C30.5149 77.7435 30.8816 76.8933 31.092 75.7298L31.1884 75.1836ZM37.5404 73.7571L37.4401 74.7311C38.1662 74.0922 39.0293 73.861 40.0295 74.0374C40.9118 74.1929 41.5226 74.5677 41.8621 75.1617C42.2016 75.7558 42.2856 76.5692 42.1141 77.6019L41.1658 82.9799L38.9423 82.5878L39.8811 77.2637C39.9643 76.7918 39.9219 76.4327 39.7538 76.1862C39.5866 75.9346 39.2645 75.7667 38.7875 75.6826C38.1617 75.5723 37.6454 75.7562 37.2384 76.2345L36.2033 82.1049L33.9798 81.7128L35.4477 73.3881L37.5404 73.7571ZM51.0803 80.5157C50.8451 81.8493 50.3769 82.8403 49.6755 83.4888C48.975 84.1321 48.1144 84.3638 47.0937 84.1838C46.191 84.0246 45.5314 83.5513 45.1149 82.7639L44.8588 83.6311L42.8585 83.2784L44.9422 71.4607L47.1657 71.8527L46.4182 76.092C47.037 75.5824 47.7644 75.4012 48.6004 75.5486C49.616 75.7277 50.345 76.2423 50.7875 77.0925C51.2359 77.9384 51.3408 79.0385 51.102 80.3926L51.0803 80.5157ZM48.8853 79.962C49.0336 79.1208 49.0083 78.4844 48.8094 78.0527C48.6114 77.6158 48.2483 77.3508 47.72 77.2577C47.0122 77.1328 46.4738 77.3367 46.1049 77.8693L45.5256 81.1546C45.6943 81.7872 46.1352 82.1664 46.8481 82.2921C47.5662 82.4187 48.1005 82.148 48.451 81.48C48.6184 81.1605 48.7632 80.6545 48.8853 79.962ZM55.5415 85.6734C54.3208 85.4581 53.3917 84.9082 52.7544 84.0237C52.1222 83.1401 51.9159 82.0751 52.1357 80.8287L52.1737 80.6133C52.3211 79.7772 52.6143 79.0594 53.0532 78.4598C53.493 77.8551 54.039 77.4278 54.6913 77.1779C55.3496 76.9238 56.0583 76.8637 56.8174 76.9975C57.9561 77.1983 58.7879 77.7152 59.3126 78.5481C59.8426 79.382 59.9913 80.458 59.7589 81.7762L59.5988 82.6841L54.2978 81.7494C54.2737 82.3057 54.4122 82.7797 54.7134 83.1713C55.0197 83.5637 55.4498 83.8088 56.0038 83.9065C56.8604 84.0575 57.5844 83.8653 58.176 83.3296L59.0528 84.7456C58.6362 85.1587 58.1197 85.4484 57.5034 85.6147C56.8879 85.7759 56.2339 85.7955 55.5415 85.6734ZM56.4923 78.7965C56.0512 78.7187 55.6659 78.8042 55.3365 79.0528C55.0122 79.3024 54.7627 79.6974 54.5881 80.2378L57.681 80.7831L57.7122 80.6062C57.7888 80.1119 57.7223 79.7089 57.5129 79.3969C57.3044 79.0799 56.9642 78.8797 56.4923 78.7965ZM68.476 83.583C68.2499 84.8653 67.7762 85.8422 67.0549 86.5136C66.3396 87.1807 65.487 87.4271 64.4971 87.2525C63.6559 87.1042 63.0278 86.692 62.6129 86.0159L61.921 89.9397L59.6975 89.5477L61.7297 78.0224L63.7917 78.3859L63.7248 79.215C64.3773 78.6637 65.137 78.4645 66.0038 78.6173C67.0297 78.7982 67.7604 79.3184 68.1958 80.1779C68.6313 81.0374 68.7315 82.134 68.4963 83.4676L68.476 83.583ZM66.281 83.0294C66.4175 82.2548 66.3844 81.6329 66.1816 81.1634C65.9839 80.6949 65.6235 80.4145 65.1003 80.3223C64.4027 80.1993 63.8761 80.3814 63.5205 80.8687L62.9195 84.2771C63.0946 84.8739 63.5309 85.2337 64.2285 85.3567C65.2902 85.544 65.9744 84.7682 66.281 83.0294ZM72.9449 88.7421C71.7242 88.5268 70.7951 87.9769 70.1578 87.0924C69.5256 86.2088 69.3193 85.1438 69.5391 83.8974L69.5771 83.682C69.7245 82.8459 70.0177 82.1281 70.4566 81.5285C70.8964 80.9238 71.4424 80.4965 72.0947 80.2466C72.753 79.9925 73.4617 79.9324 74.2208 80.0662C75.3595 80.267 76.1913 80.7839 76.716 81.6168C77.246 82.4507 77.3947 83.5267 77.1623 84.8449L77.0022 85.7528L71.7012 84.8181C71.6771 85.3744 71.8156 85.8484 72.1168 86.24C72.4231 86.6324 72.8532 86.8775 73.4072 86.9752C74.2638 87.1262 74.9878 86.9339 75.5794 86.3983L76.4562 87.8143C76.0396 88.2274 75.5231 88.5171 74.9068 88.6834C74.2913 88.8446 73.6373 88.8642 72.9449 88.7421ZM73.8957 81.8652C73.4546 81.7874 73.0693 81.8729 72.7399 82.1215C72.4156 82.3711 72.1661 82.7661 71.9915 83.3064L75.0844 83.8518L75.1156 83.6748C75.1922 83.1806 75.1257 82.7776 74.9163 82.4656C74.7078 82.1485 74.3676 81.9484 73.8957 81.8652ZM83.4433 84.0009C83.1479 83.9065 82.8848 83.839 82.654 83.7983C81.8128 83.6499 81.2112 83.8374 80.8493 84.3606L79.8888 89.8078L77.6653 89.4157L79.1331 81.091L81.2335 81.4614L81.1201 82.4648C81.7011 81.7792 82.3865 81.506 83.1764 81.6453C83.4226 81.6887 83.6476 81.7628 83.8512 81.8674L83.4433 84.0009ZM87.0327 87.6245L86.0914 88.2836L85.6437 90.8226L83.4202 90.4305L85.504 78.6128L87.7275 79.0049L86.573 85.5523L87.1016 85.0743L89.6736 82.9496L92.3434 83.4204L88.7233 86.3598L91.1371 91.7912L88.5828 91.3408L87.0327 87.6245ZM96.328 82.0128L95.9672 84.0593L97.3905 84.3103L97.1029 85.9414L95.6796 85.6904L94.947 89.8451C94.8927 90.1528 94.9128 90.3838 95.0073 90.538C95.1017 90.6921 95.3157 90.7986 95.6491 90.8574C95.8953 90.9008 96.1164 90.9213 96.3125 90.9188L96.0154 92.6038C95.5559 92.6603 95.0954 92.6478 94.6338 92.5664C93.0745 92.2915 92.4183 91.3639 92.6652 89.7839L93.4561 85.2984L92.2404 85.084L92.5281 83.4529L93.7437 83.6673L94.1045 81.6207L96.328 82.0128ZM105.576 83.6434L105.215 85.69L106.639 85.941L106.351 87.5721L104.928 87.3211L104.195 91.4757C104.141 91.7835 104.161 92.0145 104.255 92.1686C104.35 92.3228 104.564 92.4293 104.897 92.488C105.143 92.5315 105.364 92.5519 105.561 92.5495L105.263 94.2344C104.804 94.2909 104.343 94.2785 103.882 94.1971C102.322 93.9221 101.666 92.9946 101.913 91.4145L102.704 86.929L101.488 86.7147L101.776 85.0836L102.992 85.2979L103.352 83.2514L105.576 83.6434ZM112.187 89.0692C111.892 88.9749 111.629 88.9073 111.398 88.8666C110.557 88.7183 109.955 88.9057 109.593 89.4289L108.633 94.8762L106.409 94.4841L107.877 86.1594L109.978 86.5298L109.864 87.5331C110.445 86.8475 111.131 86.5744 111.921 86.7137C112.167 86.7571 112.392 86.8311 112.595 86.9358L112.187 89.0692ZM116.758 96.3088C116.69 96.0906 116.66 95.8288 116.666 95.5231C116.022 96.0283 115.269 96.2049 114.407 96.0529C113.591 95.9091 112.956 95.5538 112.5 94.987C112.05 94.421 111.888 93.779 112.015 93.0609C112.171 92.1787 112.616 91.5591 113.35 91.202C114.09 90.8459 115.078 90.7743 116.316 90.9871L117.339 91.1675L117.423 90.6905C117.491 90.3058 117.445 89.9804 117.286 89.7143C117.131 89.4492 116.841 89.279 116.416 89.204C116.041 89.138 115.731 89.1757 115.483 89.3172C115.242 89.4597 115.093 89.6873 115.038 90.0002L112.814 89.6082C112.899 89.126 113.127 88.706 113.497 88.3481C113.866 87.9902 114.344 87.7438 114.928 87.6089C115.513 87.4688 116.144 87.4585 116.821 87.5778C117.847 87.7587 118.615 88.1611 119.123 88.785C119.638 89.4046 119.813 90.1812 119.649 91.1147L119.012 94.7231C118.878 95.5139 118.883 96.1309 119.027 96.5741L119.004 96.7049L116.758 96.3088ZM115.191 94.4381C115.52 94.496 115.835 94.4775 116.137 94.3827C116.44 94.2828 116.68 94.1215 116.857 93.8988L117.11 92.4678L116.279 92.3213C115.166 92.125 114.505 92.4052 114.298 93.162L114.267 93.2914C114.218 93.5684 114.275 93.8138 114.439 94.0277C114.602 94.2416 114.853 94.3784 115.191 94.4381ZM122.728 97.3615L120.497 96.9681L121.965 88.6434L124.196 89.0368L122.728 97.3615ZM122.214 86.466C122.272 86.1327 122.431 85.8777 122.69 85.7011C122.953 85.5255 123.277 85.4716 123.662 85.5394C124.042 85.6064 124.325 85.7674 124.513 86.0227C124.701 86.2779 124.765 86.5722 124.706 86.9056C124.647 87.2441 124.482 87.5008 124.214 87.6755C123.95 87.8511 123.631 87.9059 123.257 87.8399C122.882 87.7739 122.598 87.6128 122.406 87.3567C122.218 87.1015 122.154 86.8046 122.214 86.466ZM128.081 89.7219L127.981 90.6958C128.707 90.057 129.57 89.8258 130.57 90.0021C131.453 90.1577 132.063 90.5325 132.403 91.1265C132.742 91.7205 132.826 92.5339 132.655 93.5667L131.707 98.9447L129.483 98.5526L130.422 93.2285C130.505 92.7566 130.463 92.3974 130.295 92.151C130.127 91.8994 129.805 91.7315 129.328 91.6474C128.702 91.5371 128.186 91.721 127.779 92.1993L126.744 98.0697L124.521 97.6776L125.988 89.3529L128.081 89.7219ZM137.204 100.073C135.983 99.8574 135.054 99.3075 134.416 98.423C133.784 97.5393 133.578 96.4743 133.798 95.2279L133.836 95.0125C133.983 94.1764 134.276 93.4586 134.715 92.8591C135.155 92.2544 135.701 91.8271 136.353 91.5772C137.012 91.323 137.72 91.2629 138.48 91.3968C139.618 91.5975 140.45 92.1144 140.975 92.9473C141.505 93.7812 141.653 94.8572 141.421 96.1754L141.261 97.0833L135.96 96.1486C135.936 96.705 136.074 97.1789 136.376 97.5705C136.682 97.963 137.112 98.2081 137.666 98.3057C138.522 98.4568 139.247 98.2645 139.838 97.7289L140.715 99.1448C140.298 99.5579 139.782 99.8476 139.165 100.014C138.55 100.175 137.896 100.195 137.204 100.073ZM138.154 93.1957C137.713 93.118 137.328 93.2034 136.999 93.4521C136.674 93.7016 136.425 94.0966 136.25 94.637L139.343 95.1823L139.374 95.0054C139.451 94.5112 139.384 94.1081 139.175 93.7962C138.966 93.4791 138.626 93.279 138.154 93.1957ZM145.438 92.7824L145.338 93.7564C146.064 93.1176 146.927 92.8863 147.928 93.0627C148.81 93.2182 149.421 93.593 149.76 94.1871C150.1 94.7811 150.184 95.5945 150.012 96.6273L149.064 102.005L146.84 101.613L147.779 96.2891C147.862 95.8172 147.82 95.458 147.652 95.2115C147.485 94.9599 147.162 94.7921 146.685 94.7079C146.06 94.5976 145.543 94.7816 145.136 95.2598L144.101 101.13L141.878 100.738L143.346 92.4134L145.438 92.7824Z" fill="white"/>
<path d="M66.3022 56.9493L62.84 56.3389L58.0497 44.0944L56.1002 55.1504L52.638 54.54L55.6009 37.7367L59.0631 38.3472L63.8609 50.6167L65.8144 39.5376L69.2651 40.1461L66.3022 56.9493ZM73.0074 58.1316L69.5452 57.5212L72.5081 40.7179L75.9703 41.3284L73.0074 58.1316ZM87.621 53.1998L80.9735 52.0277L80.1799 56.5286L87.9814 57.9042L87.491 60.6855L76.2273 58.6994L79.1901 41.8961L90.4308 43.8781L89.9363 46.6825L82.1579 45.311L81.4517 49.3156L88.0992 50.4877L87.621 53.1998ZM105.203 46.4829L103.251 57.5504C102.927 59.3892 102.094 60.7416 100.751 61.6076C99.4161 62.4749 97.7523 62.7328 95.7596 62.3815C93.7977 62.0355 92.3313 61.2415 91.3603 59.9993C90.3894 58.7571 90.0525 57.2262 90.3496 55.4064L92.3235 44.2119L95.7857 44.8223L93.8301 55.913C93.6361 57.0132 93.7559 57.8633 94.1896 58.4634C94.6323 59.0571 95.3191 59.436 96.25 59.6001C98.1966 59.9434 99.3657 59.0944 99.7573 57.0533L101.729 45.8703L105.203 46.4829ZM119.021 61.2473L123.391 49.6899L126.842 50.2984L120.151 66.4444L116.666 65.8298L115.913 54.1069L111.196 64.8653L107.71 64.2507L106.946 46.7901L110.396 47.3986L110.566 59.7326L115.44 48.2878L118.371 48.8047L119.021 61.2473ZM129.843 62.8343L127.074 62.3459L128.734 50.6321L132.289 51.2589L129.843 62.8343ZM128.137 64.4135C128.699 64.5125 129.119 64.7573 129.4 65.1478C129.688 65.5397 129.786 65.9934 129.695 66.5089C129.606 67.0167 129.359 67.4055 128.954 67.6752C128.557 67.9464 128.078 68.0324 127.516 67.9334C126.962 67.8357 126.541 67.591 126.253 67.1991C125.973 66.8085 125.878 66.3594 125.968 65.8516C126.057 65.3438 126.3 64.9543 126.697 64.6832C127.103 64.4057 127.583 64.3158 128.137 64.4135Z" fill="white"/>
<path d="M34.7173 100.16L37.9066 94.1302L39.3608 94.3866L34.9077 102.185L33.8229 101.994L32.2748 93.1372L33.7289 93.3936L34.7173 100.16ZM39.5098 98.6253C39.6536 97.8098 39.9419 97.1044 40.3748 96.509C40.8128 95.9146 41.3477 95.4906 41.9794 95.2371C42.6163 94.9845 43.3015 94.9228 44.035 95.0522C45.1685 95.252 46.0149 95.8059 46.5741 96.7136C47.1384 97.6223 47.3057 98.728 47.076 100.031L47.0584 100.131C46.9155 100.941 46.6306 101.642 46.2038 102.233C45.7829 102.82 45.2511 103.242 44.6082 103.499C43.9704 103.757 43.2771 103.819 42.5282 103.687C41.3998 103.488 40.5534 102.935 39.9891 102.026C39.4299 101.118 39.2642 100.018 39.4922 98.7254L39.5098 98.6253ZM40.911 99.0469C40.7482 99.9702 40.8304 100.749 41.1575 101.383C41.4898 102.018 42.015 102.399 42.7331 102.526C43.4563 102.653 44.0805 102.472 44.6057 101.983C45.1318 101.489 45.4849 100.731 45.6648 99.7106C45.8258 98.7976 45.7381 98.0206 45.4016 97.3795C45.0711 96.7342 44.5468 96.3482 43.8288 96.2216C43.1261 96.0977 42.51 96.2773 41.9805 96.7604C41.4511 97.2435 41.0946 98.0057 40.911 99.0469ZM48.4962 100.21C48.64 99.3943 48.9283 98.6889 49.3612 98.0936C49.7992 97.4991 50.3341 97.0752 50.9658 96.8216C51.6027 96.569 52.2879 96.5074 53.0213 96.6367C54.1549 96.8366 55.0013 97.3904 55.5605 98.2982C56.1248 99.2068 56.2921 100.313 56.0624 101.615L56.0447 101.715C55.9018 102.526 55.617 103.227 55.1901 103.818C54.7693 104.405 54.2375 104.826 53.5946 105.083C52.9568 105.341 52.2634 105.404 51.5146 105.272C50.3862 105.073 49.5398 104.519 48.9755 103.61C48.4163 102.703 48.2506 101.602 48.4785 100.31L48.4962 100.21ZM49.8974 100.631C49.7346 101.555 49.8168 102.333 50.1439 102.968C50.4762 103.603 51.0013 103.983 51.7194 104.11C52.4427 104.238 53.0669 104.057 53.5921 103.568C54.1182 103.073 54.4712 102.316 54.6512 101.295C54.8122 100.382 54.7244 99.6051 54.388 98.9641C54.0575 98.3187 53.5332 97.9328 52.8151 97.8062C52.1124 97.6823 51.4964 97.8619 50.9669 98.345C50.4375 98.8281 50.081 99.5902 49.8974 100.631ZM62.3786 99.7622C62.1695 99.6883 61.9393 99.6292 61.6879 99.5849C60.7544 99.4203 60.0509 99.7061 59.5773 100.442L58.5354 106.351L57.112 106.1L58.5799 97.7755L59.9648 98.0197L59.8183 98.9855C60.4162 98.324 61.1434 98.0688 62 98.2199C62.277 98.2687 62.481 98.3417 62.6119 98.4388L62.3786 99.7622ZM72.5488 104.53L69.5944 104.009C69.4386 105.013 69.544 105.825 69.9106 106.445C70.2773 107.065 70.8838 107.45 71.7301 107.599C72.3251 107.704 72.8996 107.715 73.4535 107.633L73.3903 108.891C72.7477 108.937 72.1186 108.905 71.5031 108.796C70.2311 108.572 69.2943 108.021 68.6929 107.143C68.0975 106.26 67.9056 105.129 68.1172 103.749L66.7477 103.507L66.9159 102.553L68.2854 102.795L68.4713 101.741L67.1018 101.499L67.2714 100.538L68.6409 100.779C68.9291 99.4443 69.5021 98.4744 70.3598 97.8693C71.2235 97.2601 72.2785 97.0653 73.5249 97.2851C74.0686 97.381 74.6727 97.5694 75.3371 97.8505L74.9634 99.0698C74.436 98.7917 73.8902 98.6029 73.326 98.5034C72.4848 98.3551 71.7898 98.5023 71.2411 98.945C70.6983 99.3834 70.3266 100.082 70.1258 101.041L73.0725 101.561L72.9029 102.522L69.9485 102.001L69.7626 103.055L72.7171 103.576L72.5488 104.53ZM88.0365 100.828L81.563 110.412L80.0704 110.148L86.4634 100.931L80.4007 99.8619L80.6069 98.6925L88.1776 100.027L88.0365 100.828ZM87.5246 113.763L86.8145 113.067C87.4151 112.48 87.7885 111.832 87.9347 111.123L88.1613 109.838L89.5539 110.083L89.3572 111.199C89.2658 111.717 89.0462 112.212 88.6984 112.685C88.3558 113.159 87.9645 113.518 87.5246 113.763ZM97.2341 108.098C96.8742 108.399 96.4675 108.621 96.0141 108.763C95.5658 108.906 95.0954 108.934 94.603 108.847C93.9567 108.734 93.4205 108.475 92.9945 108.072C92.5735 107.67 92.2829 107.159 92.1226 106.538C91.9632 105.912 91.945 105.251 92.068 104.553C92.2001 103.804 92.46 103.154 92.848 102.604C93.241 102.055 93.7272 101.667 94.3064 101.441C94.8857 101.216 95.5241 101.164 96.2217 101.287C97.3296 101.482 98.1283 102.052 98.6178 102.995C99.1133 103.934 99.2349 105.119 98.9826 106.55L98.9093 106.965C98.525 109.145 97.8133 110.662 96.7743 111.515C95.7362 112.363 94.3456 112.647 92.6022 112.366L92.3253 112.317L92.5369 111.117L92.8369 111.17C94.0151 111.356 94.9717 111.21 95.7066 110.732C96.4424 110.248 96.9516 109.37 97.2341 108.098ZM95.0414 107.711C95.5184 107.795 95.9827 107.726 96.4343 107.504C96.8911 107.284 97.2498 106.974 97.5104 106.576L97.6108 106.006C97.7754 105.073 97.7066 104.278 97.4045 103.622C97.1024 102.966 96.6411 102.583 96.0204 102.473C95.3947 102.363 94.8495 102.515 94.3849 102.931C93.9213 103.341 93.6202 103.938 93.4819 104.723C93.3471 105.487 93.4179 106.15 93.6944 106.712C93.9769 107.269 94.4259 107.602 95.0414 107.711ZM101.403 108.119L102.957 102.633L108.697 103.646L108.465 104.961L103.933 104.162L103.056 107.157C103.662 106.93 104.314 106.879 105.011 107.002C106.032 107.182 106.783 107.663 107.263 108.446C107.745 109.224 107.885 110.187 107.682 111.336C107.479 112.49 107.005 113.345 106.262 113.902C105.524 114.454 104.597 114.632 103.479 114.435C102.489 114.26 101.729 113.843 101.2 113.184C100.671 112.525 100.449 111.703 100.532 110.718L101.879 110.955C101.853 111.612 101.996 112.137 102.307 112.53C102.619 112.919 103.078 113.166 103.683 113.273C104.345 113.389 104.903 113.255 105.357 112.87C105.816 112.485 106.116 111.896 106.256 111.101C106.388 110.352 106.289 109.715 105.958 109.192C105.633 108.664 105.132 108.34 104.455 108.221C103.835 108.111 103.323 108.161 102.922 108.371L102.49 108.612L101.403 108.119ZM120.411 113.065C120.188 114.332 119.718 115.301 119.002 115.974C118.286 116.646 117.433 116.895 116.443 116.72C115.432 116.542 114.694 116.082 114.227 115.338L113.52 119.347L112.097 119.096L114.129 107.57L115.429 107.8L115.336 108.735C116.042 108.119 116.911 107.902 117.942 108.084C118.942 108.26 119.665 108.777 120.112 109.633C120.564 110.49 120.671 111.59 120.434 112.934L120.411 113.065ZM119.016 112.652C119.182 111.714 119.112 110.937 118.808 110.323C118.504 109.709 118.003 109.34 117.306 109.217C116.444 109.065 115.73 109.333 115.165 110.022L114.463 113.999C114.755 114.834 115.34 115.328 116.217 115.483C116.899 115.603 117.487 115.429 117.982 114.961C118.484 114.489 118.828 113.719 119.016 112.652ZM124.937 118.218C123.808 118.019 122.955 117.488 122.378 116.625C121.801 115.756 121.622 114.701 121.841 113.46L121.887 113.198C122.033 112.372 122.319 111.664 122.746 111.073C123.179 110.478 123.709 110.048 124.338 109.783C124.972 109.514 125.62 109.438 126.282 109.554C127.364 109.745 128.142 110.25 128.617 111.069C129.091 111.888 129.211 112.961 128.977 114.29L128.873 114.882L123.233 113.888C123.109 114.712 123.23 115.418 123.597 116.007C123.97 116.591 124.511 116.945 125.218 117.07C125.721 117.159 126.165 117.131 126.55 116.987C126.935 116.844 127.288 116.626 127.609 116.333L128.359 117.164C127.473 118.113 126.332 118.464 124.937 118.218ZM126.076 110.724C125.501 110.623 124.982 110.748 124.518 111.1C124.055 111.447 123.711 111.989 123.485 112.726L127.655 113.462L127.674 113.354C127.761 112.624 127.665 112.03 127.385 111.574C127.107 111.112 126.671 110.829 126.076 110.724ZM135.131 112.59C134.922 112.517 134.692 112.457 134.441 112.413C133.507 112.249 132.804 112.534 132.33 113.271L131.288 119.179L129.865 118.928L131.333 110.604L132.717 110.848L132.571 111.814C133.169 111.152 133.896 110.897 134.753 111.048C135.03 111.097 135.234 111.17 135.365 111.267L135.131 112.59ZM56.6193 116.723L56.495 117.653C57.232 117.042 58.1185 116.829 59.1546 117.011C60.319 117.217 61.0327 117.803 61.296 118.769C61.6435 118.418 62.0595 118.158 62.544 117.99C63.0337 117.822 63.5811 117.792 64.1864 117.899C66.0124 118.22 66.7703 119.351 66.4601 121.29L65.4765 126.868L64.0532 126.617L65.0218 121.124C65.1267 120.529 65.069 120.061 64.8487 119.721C64.6293 119.375 64.1991 119.146 63.5579 119.033C63.0296 118.94 62.563 119.022 62.1582 119.278C61.7542 119.53 61.477 119.917 61.3265 120.441L60.3525 125.965L58.9214 125.712L59.8833 120.257C60.0967 119.047 59.611 118.337 58.4262 118.128C57.4926 117.964 56.784 118.249 56.3001 118.983L55.2284 125.061L53.805 124.81L55.2729 116.485L56.6193 116.723ZM72.7703 128.154C72.7171 127.976 72.702 127.672 72.7249 127.242C71.942 127.813 71.0915 128.017 70.1734 127.855C69.3527 127.71 68.7189 127.361 68.272 126.806C67.8312 126.247 67.6736 125.611 67.7993 124.898C67.9521 124.031 68.3989 123.417 69.1395 123.056C69.8862 122.69 70.8571 122.613 72.0522 122.824L73.4371 123.068L73.5524 122.414C73.6401 121.916 73.561 121.495 73.3151 121.15C73.0701 120.8 72.6577 120.574 72.0781 120.472C71.5703 120.383 71.122 120.436 70.7331 120.632C70.3443 120.827 70.1177 121.107 70.0535 121.472L68.6224 121.219C68.6957 120.804 68.9124 120.429 69.2726 120.096C69.6389 119.759 70.0932 119.522 70.6357 119.385C71.1832 119.249 71.7597 119.234 72.3649 119.341C73.3241 119.51 74.033 119.883 74.4917 120.461C74.9512 121.034 75.1171 121.743 74.9893 122.588L74.3137 126.419C74.179 127.184 74.1693 127.809 74.2846 128.294L74.2629 128.417L72.7703 128.154ZM70.5996 126.653C71.0458 126.732 71.4893 126.691 71.9301 126.531C72.3709 126.37 72.7136 126.121 72.9582 125.784L73.2594 124.076L72.1438 123.879C70.3998 123.571 69.4379 123.928 69.2579 124.949C69.1792 125.395 69.2665 125.77 69.5197 126.074C69.7728 126.378 70.1328 126.571 70.5996 126.653ZM81.3412 129.666C81.288 129.487 81.2729 129.183 81.2958 128.753C80.5129 129.324 79.6624 129.528 78.7443 129.366C77.9236 129.222 77.2898 128.872 76.8429 128.317C76.4021 127.758 76.2445 127.122 76.3702 126.409C76.523 125.542 76.9698 124.928 77.7104 124.567C78.4571 124.202 79.428 124.124 80.6231 124.335L82.008 124.579L82.1233 123.925C82.211 123.428 82.1319 123.006 81.886 122.662C81.641 122.312 81.2286 122.086 80.649 121.983C80.1412 121.894 79.6929 121.947 79.304 122.143C78.9152 122.339 78.6886 122.619 78.6244 122.983L77.1933 122.731C77.2666 122.315 77.4833 121.941 77.8435 121.608C78.2098 121.27 78.6641 121.033 79.2066 120.896C79.7541 120.76 80.3306 120.745 80.9358 120.852C81.895 121.021 82.6039 121.395 83.0626 121.973C83.5222 122.545 83.688 123.254 83.5602 124.099L82.8846 127.931C82.7499 128.695 82.7402 129.32 82.8555 129.806L82.8338 129.929L81.3412 129.666ZM79.1705 128.164C79.6167 128.243 80.0602 128.202 80.501 128.042C80.9418 127.882 81.2845 127.633 81.5291 127.295L81.8303 125.587L80.7147 125.39C78.9708 125.083 78.0088 125.439 77.8288 126.46C77.7501 126.906 77.8374 127.281 78.0906 127.585C78.3437 127.889 78.7037 128.082 79.1705 128.164ZM87.5869 122.183L87.4486 123.238C88.2257 122.55 89.1272 122.296 90.153 122.477C91.9123 122.787 92.6247 123.936 92.29 125.924L91.32 131.425L89.8967 131.174L90.868 125.665C90.9687 125.064 90.9085 124.596 90.6873 124.261C90.4712 123.927 90.0785 123.709 89.5091 123.609C89.0475 123.528 88.6206 123.579 88.2284 123.764C87.8362 123.949 87.5074 124.224 87.2419 124.59L86.196 130.522L84.7726 130.271L86.2405 121.946L87.5869 122.183ZM93.8665 127.511C94.0917 126.234 94.5753 125.261 95.3171 124.594C96.0598 123.921 96.921 123.67 97.9007 123.843C98.8752 124.015 99.5884 124.485 100.04 125.252L100.805 120.912L102.229 121.163L100.145 132.981L98.8369 132.751L98.925 131.846C98.2327 132.443 97.3787 132.652 96.3631 132.473C95.3988 132.303 94.6812 131.769 94.2101 130.872C93.7441 129.975 93.6233 128.891 93.8476 127.619L93.8665 127.511ZM95.2614 127.923C95.095 128.867 95.1597 129.64 95.4554 130.242C95.7512 130.845 96.2427 131.206 96.93 131.327C97.8328 131.487 98.5633 131.198 99.1217 130.46L99.7959 126.637C99.5086 125.777 98.9238 125.269 98.0416 125.114C97.344 124.991 96.7528 125.164 96.2681 125.634C95.7833 126.104 95.4477 126.867 95.2614 127.923ZM104.511 130.491L103.226 130.264L104.544 122.206L106.036 122.469L104.511 130.491ZM102.641 132.683C102.681 132.453 102.785 132.273 102.95 132.143C103.122 132.009 103.346 131.967 103.623 132.016C103.9 132.065 104.096 132.181 104.212 132.366C104.328 132.545 104.366 132.75 104.326 132.981C104.285 133.211 104.179 133.391 104.008 133.52C103.839 133.643 103.615 133.68 103.338 133.631C103.061 133.583 102.864 133.471 102.747 133.297C102.635 133.119 102.6 132.914 102.641 132.683Z" fill="#CFE2AF"/>
</svg>
