<?xml version="1.0" encoding="utf-8"?>
<!-- Generator: Adobe Illustrator 19.2.1, SVG Export Plug-In . SVG Version: 6.00 Build 0)  -->
<svg version="1.1" id="Laag_1" xmlns="http://www.w3.org/2000/svg" xmlns:xlink="http://www.w3.org/1999/xlink" x="0px" y="0px"
	 viewBox="0 0 100 100" style="enable-background:new 0 0 100 100;" xml:space="preserve">
<style type="text/css">
	.st0{clip-path:url(#SVGID_2_);fill:#76B72A;}
	.st1{fill:#FFFFFF;}
	.st2{fill:#CFE2AF;}
</style>
<g>
	<defs>
		<rect id="SVGID_1_" x="-7" y="-1.8" width="112.8" height="102.8"/>
	</defs>
	<clipPath id="SVGID_2_">
		<use xlink:href="#SVGID_1_"  style="overflow:visible;"/>
	</clipPath>
	<path class="st0" d="M42.3,92.9C64.6,96.8,85.8,82,89.7,59.7c3.9-22.3-10.9-43.5-33.2-47.4C34.3,8.3,13,23.2,9.1,45.5
		C5.2,67.7,20,89,42.3,92.9"/>
</g>
<g>
	<path class="st1" d="M32.9,35.5l1.5-8.5l2.4,0.4l1.2,6.3l0,0l1-5.9l1.7,0.3l-1.5,8.5l-2.3-0.4l-1.2-6.6l0,0l-1.1,6.2L32.9,35.5z"/>
	<path class="st1" d="M40.7,36.9l1.5-8.5l1.8,0.3l-1.5,8.5L40.7,36.9z"/>
	<path class="st1" d="M44,37.4l1.5-8.5l4.6,0.8l-0.2,1.3L47,30.6l-0.4,2.1l2.6,0.5l-0.2,1.3L46.4,34L46,36.4l3,0.5l-0.2,1.3L44,37.4
		z"/>
	<path class="st1" d="M57.1,31l-1.1,6c-0.2,1.3-1.2,2.5-3.3,2.1c-2-0.3-2.7-1.5-2.4-3.1l1.1-6l1.8,0.3l-1,5.9
		c-0.2,1,0.2,1.5,0.8,1.7c0.8,0.1,1.2-0.3,1.4-1.3l1-5.9L57.1,31z"/>
	<path class="st1" d="M57.8,31.1l1.8,0.3l0.1,6.2l0,0l2.4-5.7l2.1,0.4l0.2,6.2l0,0l2.1-5.8l1.7,0.3l-3.4,8.2l-2-0.3l-0.2-6.4l0,0
		l-2.6,6l-1.9-0.3L57.8,31.1z"/>
	<path class="st1" d="M69.7,40.5l-0.2,1.4L68,41.7l0.2-1.4L69.7,40.5z M69.7,39.6l-1.1-0.2l0.8-6.3l1.6,0.3L69.7,39.6z"/>
</g>
<g>
	<path class="st1" d="M17.6,43.9c0.3-1.7,0.6-3.3,2.8-2.9c2.2,0.4,1.9,2,1.6,3.7c-0.3,1.7-0.6,3.3-2.8,2.9
		C17.1,47.2,17.4,45.6,17.6,43.9z M20.7,44.5c0.3-1.6,0.3-2.4-0.4-2.5c-0.8-0.1-1,0.6-1.3,2.2c-0.3,1.6-0.3,2.4,0.4,2.5
		C20.2,46.8,20.4,46.1,20.7,44.5z"/>
	<path class="st1" d="M24.4,44.3L24.4,44.3c0.2-0.2,0.4-0.3,0.5-0.3c0.2-0.1,0.4-0.1,0.6,0c0.6,0.1,1,0.5,0.9,1.2l-0.6,3.6l-1.2-0.2
		l0.5-3.1c0.1-0.4,0.1-0.7-0.3-0.8s-0.5,0.2-0.6,0.6l-0.5,3.1l-1.2-0.2l0.8-4.5l1.2,0.2L24.4,44.3z"/>
	<path class="st1" d="M28,42.5l1.2,0.2L28.8,45l0,0c0.3-0.3,0.7-0.4,1.1-0.3c1.3,0.2,1,1.6,0.8,2.5c-0.2,0.9-0.4,2.4-1.7,2.1
		c-0.5-0.1-0.8-0.3-0.9-0.8l0,0L28.1,49l-1.2-0.2L28,42.5z M29.6,47c0.2-0.9,0.3-1.5-0.3-1.6c-0.5-0.1-0.6,0.5-0.8,1.4
		c-0.2,1.1-0.2,1.6,0.2,1.7C29.2,48.5,29.4,48.1,29.6,47z"/>
	<path class="st1" d="M32.8,47.8c-0.1,0.5-0.2,1.3,0.3,1.4c0.4,0.1,0.6-0.3,0.7-0.7l1.3,0.2c-0.1,0.5-0.3,0.9-0.7,1.1
		C34.1,50,33.6,50.1,33,50c-1.6-0.3-1.6-1.3-1.4-2.7c0.2-1.2,0.6-2.2,2.2-1.9c1.7,0.3,1.7,1.4,1.4,2.8L32.8,47.8z M34.1,47.3
		c0.1-0.4,0.2-1-0.4-1.2c-0.6-0.1-0.7,0.6-0.8,1L34.1,47.3z"/>
	<path class="st1" d="M37.7,46.1l-0.1,0.5l0,0c0.3-0.4,0.7-0.5,1.2-0.4c1.3,0.2,1,1.6,0.8,2.6c-0.2,0.9-0.4,2.3-1.6,2.1
		c-0.5-0.1-0.7-0.3-0.9-0.7l0,0l-0.4,2.3l-1.2-0.2l1.1-6.4L37.7,46.1z M38.4,48.5c0.2-0.9,0.3-1.5-0.3-1.6c-0.5-0.1-0.6,0.5-0.8,1.4
		c-0.2,1.1-0.2,1.6,0.2,1.7C38,50.1,38.2,49.6,38.4,48.5z"/>
	<path class="st1" d="M41.6,49.3c-0.1,0.5-0.2,1.3,0.3,1.4c0.4,0.1,0.6-0.3,0.7-0.7l1.3,0.2c-0.1,0.5-0.3,0.9-0.7,1.1
		c-0.3,0.2-0.8,0.3-1.4,0.2c-1.6-0.3-1.6-1.3-1.4-2.7c0.2-1.2,0.6-2.2,2.2-1.9c1.7,0.3,1.7,1.4,1.4,2.8L41.6,49.3z M42.9,48.8
		c0.1-0.4,0.2-1-0.4-1.2c-0.6-0.1-0.7,0.6-0.8,1L42.9,48.8z"/>
	<path class="st1" d="M46.5,47.7l-0.1,0.6l0,0c0.3-0.5,0.8-0.5,1.3-0.5l-0.2,1.1c-1.1-0.3-1.2,0.4-1.3,0.8l-0.4,2.4l-1.2-0.2
		l0.8-4.5L46.5,47.7z"/>
	<path class="st1" d="M47.5,52.5l1.1-6.4l1.2,0.2l-0.7,3.8l0,0l1.5-1.7l1.3,0.2l-1.6,1.8l1,2.7l-1.4-0.2l-0.7-2.6l0,0l-0.4,2.4
		L47.5,52.5z"/>
	<path class="st1" d="M52.2,48.7l0.5,0.1l0.1-0.7l1.3-0.3L53.9,49l0.6,0.1l-0.1,0.8l-0.6-0.1l-0.4,2.4c-0.1,0.3-0.1,0.6,0.3,0.6
		c0.1,0,0.2,0,0.2,0l-0.1,0.8c-0.2,0-0.4,0-0.7-0.1c-1.1-0.2-1.1-0.9-1-1.2l0.5-2.7L52,49.5L52.2,48.7z"/>
</g>
<g>
	<path class="st1" d="M56.6,49.5l0.5,0.1l0.1-0.7l1.3-0.3l-0.2,1.3l0.6,0.1l-0.1,0.8l-0.6-0.1l-0.4,2.4c-0.1,0.3-0.1,0.6,0.3,0.6
		c0.1,0,0.2,0,0.2,0l-0.1,0.8c-0.2,0-0.4,0-0.7-0.1c-1.1-0.2-1.1-0.9-1-1.2l0.5-2.7l-0.5-0.1L56.6,49.5z"/>
	<path class="st1" d="M60.7,50.2l-0.1,0.6l0,0c0.3-0.5,0.8-0.5,1.3-0.5l-0.2,1.1c-1.1-0.3-1.2,0.4-1.3,0.8L60,54.7l-1.2-0.2l0.8-4.5
		L60.7,50.2z"/>
	<path class="st1" d="M65.2,54.7c0,0.3-0.1,0.6-0.1,0.8L64,55.4l0.1-0.6l0,0c-0.3,0.4-0.7,0.6-1.3,0.5c-0.9-0.2-1.1-0.9-0.9-1.6
		c0.3-1.5,1.4-1.3,2.6-1.1l0.1-0.3c0.1-0.4,0.1-0.7-0.4-0.7c-0.4-0.1-0.5,0.2-0.6,0.6l-1.2-0.2c0.1-0.5,0.3-0.9,0.6-1
		c0.3-0.2,0.7-0.2,1.2-0.1c1.6,0.3,1.7,1,1.5,1.8L65.2,54.7z M63,53.8c-0.1,0.3-0.1,0.7,0.3,0.8c0.7,0.1,0.8-0.9,0.9-1.4
		C63.6,53.1,63.2,53,63,53.8z"/>
	<path class="st1" d="M67.5,56l-1.2-0.2l0.8-4.5l1.2,0.2L67.5,56z M68.6,49.6l-0.2,1l-1.2-0.2l0.2-1L68.6,49.6z"/>
	<path class="st1" d="M70.5,52.4L70.5,52.4c0.2-0.2,0.3-0.3,0.5-0.3c0.2-0.1,0.4-0.1,0.6,0c0.6,0.1,1,0.5,0.9,1.2L72,56.8l-1.2-0.2
		l0.5-3.1c0.1-0.4,0.1-0.7-0.3-0.8c-0.4-0.1-0.5,0.2-0.6,0.6l-0.5,3.1l-1.2-0.2l0.8-4.5l1.2,0.2L70.5,52.4z"/>
	<path class="st1" d="M74.5,55.1c-0.1,0.5-0.2,1.3,0.3,1.4c0.4,0.1,0.6-0.3,0.7-0.7l1.3,0.2c-0.1,0.5-0.3,0.9-0.7,1.1
		c-0.3,0.2-0.8,0.3-1.4,0.2c-1.6-0.3-1.6-1.3-1.4-2.7c0.2-1.2,0.6-2.2,2.2-1.9c1.7,0.3,1.7,1.4,1.4,2.8L74.5,55.1z M75.7,54.6
		c0.1-0.4,0.2-1-0.4-1.2c-0.6-0.1-0.7,0.6-0.8,1L75.7,54.6z"/>
	<path class="st1" d="M79.3,54L79.3,54c0.2-0.2,0.3-0.3,0.5-0.3c0.2-0.1,0.4-0.1,0.6,0c0.6,0.1,1,0.5,0.9,1.2l-0.6,3.6l-1.2-0.2
		l0.5-3.1c0.1-0.4,0.1-0.7-0.3-0.8c-0.4-0.1-0.5,0.2-0.6,0.6L78.6,58l-1.2-0.2l0.8-4.5l1.2,0.2L79.3,54z"/>
</g>
<g>
	<path class="st2" d="M22.4,54.8l0.8,0.1l0.3,4l0,0l1.7-3.6l0.8,0.1l-2.2,4.2L23,59.5L22.4,54.8z"/>
	<path class="st2" d="M26.3,57.9c0.2-1.3,0.6-2.4,2.1-2.1c1.5,0.3,1.5,1.4,1.3,2.7c-0.3,2-1.1,2.1-2.1,2S26,59.9,26.3,57.9z M29,58
		c0.2-1.2-0.1-1.5-0.7-1.6c-0.6-0.1-1,0.1-1.2,1.3c-0.3,1.4-0.2,2,0.6,2.1C28.5,60,28.8,59.5,29,58z"/>
	<path class="st2" d="M30.8,58.7c0.2-1.3,0.6-2.4,2.1-2.1c1.5,0.3,1.5,1.4,1.3,2.7c-0.3,2-1.1,2.1-2.1,2
		C31.1,61,30.4,60.6,30.8,58.7z M33.4,58.8c0.2-1.2-0.1-1.5-0.7-1.6c-0.6-0.1-1,0.1-1.2,1.3c-0.3,1.4-0.2,2,0.6,2.1
		C32.9,60.8,33.2,60.3,33.4,58.8z"/>
	<path class="st2" d="M36.3,58L36.3,58c0.4-0.6,0.8-0.6,1.5-0.5l-0.1,0.8c-0.1,0-0.1,0-0.2-0.1s-0.1,0-0.2-0.1
		c-0.8-0.1-1.1,0.4-1.2,1l-0.5,2.6l-0.7-0.1l0.8-4.5l0.7,0.1L36.3,58z"/>
	<path class="st2" d="M40.2,59.7l0.1-0.6L39.8,59l0.2-0.6l0.4,0.1l0.1-0.4c0.2-1.2,0.8-1.8,1.9-1.6c1,0.2,1.5,0.8,1.3,1.9l-0.8-0.1
		c0.1-0.5-0.1-0.9-0.6-1c-0.6-0.1-0.9,0.3-1,0.9l-0.1,0.5l1.4,0.2l-0.2,0.6l-1.3-0.2l-0.1,0.6l1.2,0.2l-0.2,0.6L41,60.4L40.9,61
		c-0.1,0.7,0,1.2,0.6,1.3c0.5,0.1,0.8-0.1,0.9-0.8l0.8,0.1c-0.2,1-0.8,1.5-1.8,1.3c-1.1-0.2-1.5-0.9-1.3-2.1l0.1-0.5l-0.5-0.1
		l0.2-0.6L40.2,59.7z"/>
	<path class="st2" d="M46.4,57.3l3.2,0.6l-0.1,0.7l-2.6,5.1l-0.9-0.2l2.7-5.1L46.3,58L46.4,57.3z"/>
	<path class="st2" d="M49.9,63.3l0.9,0.2l-1.2,1.9l-0.6-0.1L49.9,63.3z"/>
	<path class="st2" d="M55.1,62c-0.3,1.6-0.5,3.2-2.2,2.9c-0.9-0.2-1.4-0.9-1.2-1.9l0.8,0.1c-0.1,0.5,0,0.9,0.5,1
		c0.8,0.1,1-0.7,1.3-2.3l0,0c-0.3,0.4-0.7,0.5-1.2,0.4c-0.5-0.1-1.4-0.5-1.1-2.2c0.2-1.4,1.2-1.7,2-1.6C55.7,58.9,55.4,60.4,55.1,62
		z M52.8,60.3c-0.1,0.6-0.1,1.3,0.6,1.4c0.7,0.1,0.9-0.5,1-1.1c0.1-0.6,0.1-1.3-0.6-1.4C53.2,59,52.9,59.7,52.8,60.3z"/>
	<path class="st2" d="M59.3,59.6l-0.1,0.7l-2-0.4l-0.3,1.8l0,0c0.2-0.2,0.6-0.4,1.1-0.3c0.9,0.2,1.2,0.9,0.9,2.3
		c-0.2,1-0.5,2.1-2,1.9c-1.3-0.2-1.4-1-1.2-1.8l0.8,0.1c-0.1,0.5,0,1,0.6,1.1c0.8,0.1,1-0.6,1.1-1.2c0.2-0.9,0.3-1.6-0.5-1.7
		c-0.4-0.1-0.7,0.2-0.9,0.6l-0.7-0.1l0.6-3.4L59.3,59.6z"/>
	<path class="st2" d="M62.8,62.5L62.8,62.5c0.3-0.4,0.7-0.5,1.2-0.4c0.7,0.1,1.4,0.5,1,2.5c-0.2,1.1-0.5,2.4-1.9,2.1
		c-0.4-0.1-0.7-0.3-0.9-0.7l0,0l-0.4,2.1L61.1,68l1.1-6.1l0.7,0.1L62.8,62.5z M64.3,64.4c0.1-0.7,0.3-1.6-0.6-1.8
		c-0.9-0.2-1,1.1-1.1,1.8c-0.1,0.6-0.2,1.5,0.6,1.7C63.9,66.2,64.1,65.6,64.3,64.4z"/>
	<path class="st2" d="M66.8,65.2c-0.2,1.2,0.1,1.5,0.6,1.6c0.5,0.1,0.8-0.3,0.9-0.7l0.8,0.1c-0.2,1-0.9,1.3-1.8,1.2
		c-0.9-0.2-1.6-0.6-1.3-2.5c0.2-1.3,0.6-2.4,2.1-2.1c1.3,0.2,1.5,1,1.2,2.5l-0.1,0.4L66.8,65.2z M68.7,65c0.2-1.3-0.1-1.5-0.6-1.6
		c-0.5-0.1-0.9,0.1-1.1,1.3L68.7,65z"/>
	<path class="st2" d="M71.6,64.2L71.6,64.2c0.4-0.6,0.8-0.6,1.5-0.5L73,64.4c-0.1,0-0.1,0-0.2-0.1c-0.1,0-0.1,0-0.2-0.1
		c-0.8-0.1-1.1,0.4-1.2,1L70.9,68l-0.7-0.1l0.8-4.5l0.7,0.1L71.6,64.2z"/>
</g>
<g>
	<path class="st2" d="M34.4,72.9l0.5-3.1c0.1-0.5,0-0.9-0.6-1c-0.2,0-0.5,0-0.7,0.2c-0.2,0.2-0.3,0.5-0.3,0.6l-0.5,3l-0.7-0.1
		l0.6-3.5c0.1-0.3,0.1-0.6,0.1-0.9l0.8,0.1l-0.1,0.6l0,0c0.3-0.4,0.7-0.5,1.2-0.4c0.4,0.1,0.8,0.3,0.9,0.8c0.3-0.4,0.8-0.5,1.2-0.4
		c0.5,0.1,1.2,0.3,1,1.4l-0.6,3.4l-0.7-0.1l0.5-3.1c0.1-0.5,0-0.9-0.6-1c-0.3,0-0.4-0.1-0.6,0.1c-0.2,0.1-0.4,0.6-0.4,0.7l-0.5,3
		L34.4,72.9z"/>
	<path class="st2" d="M41,73.4L41,73.4c-0.3,0.5-0.7,0.6-1.3,0.5c-0.9-0.2-1.1-0.8-1-1.7c0.2-1.3,1.6-1.2,2.6-1
		c0.1-0.6,0.2-1.2-0.5-1.4c-0.5-0.1-0.8,0.2-0.8,0.7l-0.8-0.1c0.2-1,0.8-1.2,1.7-1.1c1.1,0.2,1.3,0.8,1.2,1.6l-0.4,2.1
		c-0.1,0.4-0.1,0.7-0.1,1.1l-0.8-0.1L41,73.4z M39.5,72.4c-0.1,0.4,0.1,0.9,0.6,0.9c0.4,0.1,1-0.1,1.2-1.5
		C40.6,71.7,39.7,71.5,39.5,72.4z"/>
	<path class="st2" d="M45.4,74.2L45.4,74.2c-0.3,0.5-0.7,0.6-1.3,0.5c-0.9-0.2-1.1-0.8-1-1.7c0.2-1.3,1.6-1.2,2.6-1
		c0.1-0.6,0.2-1.2-0.5-1.4c-0.5-0.1-0.8,0.2-0.8,0.7l-0.8-0.1c0.2-1,0.8-1.2,1.7-1.1c1.1,0.2,1.3,0.8,1.2,1.6l-0.4,2.1
		c-0.1,0.4-0.1,0.7-0.1,1.1l-0.8-0.1L45.4,74.2z M43.9,73.2c-0.1,0.4,0.1,0.9,0.6,0.9c0.4,0.1,1-0.1,1.2-1.5
		C45,72.5,44.1,72.3,43.9,73.2z"/>
	<path class="st2" d="M49.8,75.6l0.5-3.1c0.1-0.5,0-0.9-0.6-1c-0.8-0.1-1,0.5-1.1,1.2l-0.5,2.6l-0.7-0.1l0.6-3.5
		c0.1-0.3,0.1-0.6,0.1-0.9l0.8,0.1l-0.1,0.6l0,0c0.4-0.5,0.7-0.6,1.3-0.5c1,0.2,1.1,0.8,0.9,1.7l-0.5,3.1L49.8,75.6z"/>
	<path class="st2" d="M55.3,70l0.7,0.1l-1.1,6.4l-0.7-0.1l0.1-0.5l0,0c-0.3,0.4-0.7,0.5-1.1,0.4c-0.7-0.1-1.4-0.5-1-2.5
		c0.2-1.1,0.5-2.4,1.9-2.1c0.4,0.1,0.7,0.3,0.9,0.7l0,0L55.3,70z M54,72.3c-0.8-0.1-1,0.5-1.2,1.7c-0.1,0.7-0.3,1.6,0.6,1.8
		c0.8,0.1,1-0.9,1.1-1.8C54.7,73.4,54.8,72.4,54,72.3z"/>
	<path class="st2" d="M57.5,77l-0.8-0.1l0.2-0.9l0.8,0.1L57.5,77z M57,75.4l0.7-4.9l1,0.2l-1,4.9L57,75.4z"/>
</g>
</svg>
